<svg xmlns="http://www.w3.org/2000/svg" viewBox="0 0 750 500"><g id="freepik--background-simple--inject-41"><path d="M717.57,332.31c-9.47-44.78-28.65-88.62-51.71-128C628.4,140.29,572.43,84,498,67.25c-168.75-38-205,128.25-243,150.19S122.51,227.56,71,297.59,25.48,478.15,25.48,478.15H724.93C726.52,429.28,727.65,380,717.57,332.31Z" style="fill:#FB923C"></path><path d="M717.57,332.31c-9.47-44.78-28.65-88.62-51.71-128C628.4,140.29,572.43,84,498,67.25c-168.75-38-205,128.25-243,150.19S122.51,227.56,71,297.59,25.48,478.15,25.48,478.15H724.93C726.52,429.28,727.65,380,717.57,332.31Z" style="fill:#fff;opacity:0.7000000000000001"></path></g><g id="freepik--City--inject-41"><polygon points="508.22 328.78 492.43 328.78 492.43 297.04 468.3 297.04 468.3 115.3 459.44 115.3 459.44 106.54 426.66 106.54 426.66 117.49 415.39 117.49 415.39 223.19 414.39 223.19 414.39 116.49 425.66 116.49 425.66 105.54 460.44 105.54 460.44 114.3 469.3 114.3 469.3 296.04 493.43 296.04 493.43 327.78 508.22 327.78 508.22 328.78" style="fill:#263238"></polygon><polygon points="403.33 313.46 385.43 313.46 385.43 269.67 364.51 269.67 364.51 147.05 340.58 147.05 340.58 175.51 328.31 175.51 328.31 155.81 305.98 155.81 305.98 237.42 304.98 237.42 304.98 154.81 329.31 154.81 329.31 174.51 339.58 174.51 339.58 146.05 365.51 146.05 365.51 268.67 386.43 268.67 386.43 312.46 402.33 312.46 402.33 244.58 414.39 244.58 414.39 230.85 415.39 230.85 415.39 245.58 403.33 245.58 403.33 313.46" style="fill:#263238"></polygon><polygon points="231.97 328.78 217.29 328.78 217.29 182.68 218.29 182.68 218.29 327.78 230.97 327.78 230.97 242.39 251.28 242.39 251.28 314.65 304.98 314.65 304.98 250.56 305.98 250.56 305.98 315.65 250.28 315.65 250.28 243.39 231.97 243.39 231.97 328.78" style="fill:#263238"></polygon><polygon points="175.65 289.97 174.65 289.97 174.65 109.92 218.29 109.92 218.29 170.63 217.29 170.63 217.29 110.92 175.65 110.92 175.65 289.97" style="fill:#263238"></polygon><polygon points="175.65 310.17 152.13 310.17 152.13 164.57 104.86 164.57 104.86 258.72 91.79 258.72 91.79 237.42 92.79 237.42 92.79 257.72 103.86 257.72 103.86 163.57 153.13 163.57 153.13 309.17 174.65 309.17 174.65 295.44 175.65 295.44 175.65 310.17" style="fill:#263238"></polygon><polygon points="58.2 328.78 40 328.78 40 327.78 57.2 327.78 57.2 192.03 92.79 192.03 92.79 226.47 91.79 226.47 91.79 193.03 58.2 193.03 58.2 328.78" style="fill:#263238"></polygon></g><g id="freepik--Clouds--inject-41"><path d="M145.43,104.53H79.79a.51.51,0,0,1-.5-.5.5.5,0,0,1,.5-.5H145c.21-1.14.58-4.61-2.12-6.3a4.43,4.43,0,0,0-4.17-.56,8.13,8.13,0,0,1-4.25.17.47.47,0,0,1-.31-.21c-.1-.17-10.76-16.42-18.92-15.57a12.43,12.43,0,0,0-3.33.79.5.5,0,0,1-.37-.93,12.7,12.7,0,0,1,3.59-.85c8.41-.89,18.5,14,19.76,15.84a7.28,7.28,0,0,0,3.58-.21,5.35,5.35,0,0,1,4.95.68c3.88,2.43,2.53,7.56,2.47,7.78A.5.5,0,0,1,145.43,104.53Z" style="fill:#263238"></path><path d="M75.34,104.53H57a.49.49,0,0,1-.45-.29.51.51,0,0,1,.06-.53l1.8-2.25c1.27-1.58,3.23-1,4.81-.47,1,.32,2,.62,2.58.33a7.06,7.06,0,0,0,2.13-2.63,15.6,15.6,0,0,1,3.18-4.07c1.68-1.4,4.42.06,7.31,1.61,2.27,1.21,4.62,2.47,5.9,1.92a3.74,3.74,0,0,0,2-2.31,6.55,6.55,0,0,1,4.31-4c2.39-.87,4.73.16,6.8,1.07,2.88,1.27,4.57,1.87,6-.42a25.4,25.4,0,0,0,2-4.11,22.12,22.12,0,0,1,2.09-4.22.5.5,0,0,1,.82.56,21.68,21.68,0,0,0-2,4A26.1,26.1,0,0,1,104.35,93c-2,3.13-4.68,1.94-7.28.8-2-.88-4-1.78-6.06-1a5.57,5.57,0,0,0-3.74,3.49,4.68,4.68,0,0,1-2.55,2.81c-1.72.74-4.17-.57-6.76-2s-5-2.69-6.19-1.72a14.72,14.72,0,0,0-3,3.82,7.5,7.5,0,0,1-2.54,3c-.93.47-2.09.1-3.32-.28-1.75-.54-3-.83-3.73.14l-1.15,1.45H75.34a.5.5,0,0,1,.5.5A.5.5,0,0,1,75.34,104.53Z" style="fill:#263238"></path><path d="M647.66,130.54h-52.3a.5.5,0,0,1-.45-.28.49.49,0,0,1,.06-.53l1.8-2.25c1.27-1.58,3.23-1,4.81-.48,1,.33,2,.63,2.58.34a7.06,7.06,0,0,0,2.13-2.63,15.6,15.6,0,0,1,3.18-4.07c1.69-1.4,4.41.06,7.31,1.61,2.27,1.21,4.62,2.47,5.9,1.92a3.74,3.74,0,0,0,2-2.31,6.55,6.55,0,0,1,4.31-4,7.43,7.43,0,0,1,5.27.42.5.5,0,0,1-.36.94,6.45,6.45,0,0,0-4.57-.43,5.6,5.6,0,0,0-3.74,3.5,4.7,4.7,0,0,1-2.54,2.81c-1.73.74-4.18-.57-6.77-2s-5-2.69-6.19-1.72a14.51,14.51,0,0,0-3,3.82,7.5,7.5,0,0,1-2.54,3c-.93.46-2.09.1-3.32-.28-1.75-.55-2.95-.83-3.73.14l-1.15,1.44h51.26a.5.5,0,0,1,.5.5A.5.5,0,0,1,647.66,130.54Z" style="fill:#263238"></path><path d="M640.56,120.83a.51.51,0,0,1-.47-.31.51.51,0,0,1,.28-.65,3.29,3.29,0,0,0,1.48-1.37,25.4,25.4,0,0,0,2-4.11c1.54-3.74,3.12-7.61,9.67-8.3,2.79-.3,6,1.12,9.69,4.2a.5.5,0,1,1-.65.76c-3.42-2.89-6.42-4.23-8.93-4-6,.63-7.3,3.9-8.85,7.69A25.62,25.62,0,0,1,642.7,119a4.21,4.21,0,0,1-2,1.76A.46.46,0,0,1,640.56,120.83Z" style="fill:#263238"></path><path d="M683.78,130.54H652.67a.5.5,0,0,1-.5-.5.5.5,0,0,1,.5-.5h30.71c.2-1.13.58-4.6-2.12-6.29a4.43,4.43,0,0,0-4.17-.56,8.23,8.23,0,0,1-4.25.17.54.54,0,0,1-.31-.21,66.38,66.38,0,0,0-6.54-8.29.5.5,0,0,1,0-.71.51.51,0,0,1,.71,0,68.9,68.9,0,0,1,6.54,8.25,7.28,7.28,0,0,0,3.58-.21,5.35,5.35,0,0,1,4.95.68c3.88,2.43,2.53,7.56,2.47,7.78A.5.5,0,0,1,683.78,130.54Z" style="fill:#263238"></path><path d="M278.42,76.17h-96a.5.5,0,0,1-.45-.28.49.49,0,0,1,.06-.53l3.25-4.06c2.1-2.63,5.35-1.62,8.22-.72,1.93.6,3.76,1.17,4.94.58,1.47-.73,2.64-2.66,4-4.88A27.46,27.46,0,0,1,208.14,59c2.82-2.35,7.62.22,12.71,2.94,4.17,2.24,8.49,4.55,11,3.48,2.32-1,3-2.55,3.86-4.36,1.09-2.4,2.33-5.13,7.54-7a10.87,10.87,0,0,1,7,0,.49.49,0,0,1,.34.62.48.48,0,0,1-.61.34,10,10,0,0,0-6.35,0c-4.81,1.75-5.91,4.16-7,6.5-.87,1.91-1.69,3.72-4.36,4.86-2.93,1.26-7.26-1.06-11.85-3.52s-9.29-5-11.59-3a26.74,26.74,0,0,0-5.44,7c-1.43,2.35-2.67,4.39-4.4,5.26-1.54.77-3.56.14-5.69-.53-2.69-.84-5.47-1.7-7.14.39l-2.6,3.25h94.91a.5.5,0,0,1,0,1Z" style="fill:#263238"></path><path d="M341.68,76.17H284a.5.5,0,0,1,0-1h57.3c.36-1.69,1.45-8.71-3.93-12.07-3.46-2.17-5.38-1.68-7.81-1.06a14.44,14.44,0,0,1-7.46.31.5.5,0,0,1-.31-.22c-.2-.3-19.5-29.76-34.46-28.2-11,1.15-13.42,7.14-16.26,14.08a47.13,47.13,0,0,1-3.68,7.62c-3.4,5.35-8,3.31-12.5,1.34a.5.5,0,0,1,.4-.91c4.46,2,8.31,3.66,11.26-1a46,46,0,0,0,3.59-7.46c2.84-6.93,5.52-13.48,17.08-14.7,15.11-1.58,33.52,25.78,35.29,28.49a13.54,13.54,0,0,0,6.8-.35c2.45-.63,4.76-1.21,8.6,1.18,6.73,4.21,4.3,13.46,4.27,13.55A.49.49,0,0,1,341.68,76.17Z" style="fill:#263238"></path></g><g id="freepik--Trees--inject-41"><path d="M735.38,250.14c15.93,80.77-34.11,47.13-76.19,47.13s-95.41,27.39-76.2-47.13c11-42.58,34.11-69.2,76.2-69.2S728.67,216.08,735.38,250.14Z" style="fill:#FB923C"></path><path d="M735.38,250.14c15.93,80.77-34.11,47.13-76.19,47.13s-95.41,27.39-76.2-47.13c11-42.58,34.11-69.2,76.2-69.2S728.67,216.08,735.38,250.14Z" style="fill:#fff;opacity:0.30000000000000004"></path><polygon points="635.17 289.94 655.69 305.6 653.59 426.62 665.99 426.62 663.61 279.92 692.96 247.63 663.25 273.02 662.17 224.95 658.93 257.89 651.29 252.35 634.63 228.73 645.34 250.2 610.86 236.29 646 256.14 657.56 264.16 656.23 299.12 635.17 289.94" style="fill:#a1a1a1"></polygon><path d="M646.74,211.47s-1.12,5.2,1.22,9.52a29.47,29.47,0,0,0,5.53,7.19S655.8,220,646.74,211.47Z" style="fill:#fff"></path><path d="M603.12,257.44s4,3.5,8.92,3.54a29.71,29.71,0,0,0,9-1.37S614.93,253.61,603.12,257.44Z" style="fill:#fff"></path><path d="M597,279s4.87,2.16,9.57.74a29.61,29.61,0,0,0,8.15-4S607.15,271.84,597,279Z" style="fill:#fff"></path><path d="M626.1,281.25s5.32-.07,9-3.31a29.8,29.8,0,0,0,5.76-7S632.35,270.52,626.1,281.25Z" style="fill:#fff"></path><path d="M613.83,216.85S615,222,619,224.94a29.64,29.64,0,0,0,8.07,4.14S625.64,220.66,613.83,216.85Z" style="fill:#fff"></path><path d="M700.62,213s-5.27.75-8.51,4.43a29.79,29.79,0,0,0-4.83,7.68S695.79,224.45,700.62,213Z" style="fill:#fff"></path><path d="M718.89,240.4s-5.21-1.12-9.52,1.22a29.46,29.46,0,0,0-7.18,5.54S710.4,249.47,718.89,240.4Z" style="fill:#fff"></path><path d="M717.1,271.52s-3.75-3.78-8.64-4.17a29.77,29.77,0,0,0-9,.72S705.05,274.49,717.1,271.52Z" style="fill:#fff"></path><path d="M696.72,288.21s-2.16-4.86-6.6-7a29.73,29.73,0,0,0-8.7-2.55S684.39,286.7,696.72,288.21Z" style="fill:#fff"></path><path d="M686,237.73s-5.27.74-8.52,4.43a29.45,29.45,0,0,0-4.82,7.67S681.16,249.16,686,237.73Z" style="fill:#fff"></path><path d="M599.62,230.86s2.34,4.78,6.85,6.72a29.62,29.62,0,0,0,8.8,2.21S612,231.9,599.62,230.86Z" style="fill:#fff"></path><path d="M674.79,205.67s-4.27,3.19-5.35,8a29.41,29.41,0,0,0-.55,9S676,218,674.79,205.67Z" style="fill:#fff"></path><path d="M658.69,190.61s-2.42,4.74-1.27,9.51a29.42,29.42,0,0,0,3.49,8.37S665.26,201.15,658.69,190.61Z" style="fill:#fff"></path><path d="M623.85,195.67s0,5.33,3.19,9.06a29.84,29.84,0,0,0,6.92,5.85S634.5,202.06,623.85,195.67Z" style="fill:#fff"></path><path d="M641.54,150.33c20.57,104.3-44,60.86-98.39,60.86S420,246.56,444.76,150.33C458.93,95.35,488.81,61,543.15,61S632.86,106.35,641.54,150.33Z" style="fill:#FB923C"></path><path d="M641.54,150.33c20.57,104.3-44,60.86-98.39,60.86S420,246.56,444.76,150.33C458.93,95.35,488.81,61,543.15,61S632.86,106.35,641.54,150.33Z" style="fill:#fff;opacity:0.30000000000000004"></path><polygon points="512.13 201.72 538.63 221.94 535.92 426.48 551.93 426.48 548.86 188.78 586.75 147.09 548.4 179.87 547 117.8 542.82 160.34 532.96 153.19 511.44 122.69 525.27 150.41 480.75 132.45 526.12 158.09 541.05 168.43 539.33 213.58 512.13 201.72" style="fill:#a1a1a1"></polygon><path d="M527.08,100.4s-1.45,6.72,1.57,12.29a38,38,0,0,0,7.14,9.28S538.78,111.37,527.08,100.4Z" style="fill:#fff"></path><path d="M470.75,159.76s5.19,4.51,11.52,4.57a38.38,38.38,0,0,0,11.58-1.77S486,154.81,470.75,159.76Z" style="fill:#fff"></path><path d="M462.86,187.6s6.29,2.78,12.36,1a38.29,38.29,0,0,0,10.53-5.12S476,178.36,462.86,187.6Z" style="fill:#fff"></path><path d="M500.42,190.5s6.88-.09,11.63-4.28a38.39,38.39,0,0,0,7.45-9S508.49,176.65,500.42,190.5Z" style="fill:#fff"></path><path d="M484.58,107.35s1.55,6.7,6.66,10.45a38.15,38.15,0,0,0,10.42,5.33S499.84,112.27,484.58,107.35Z" style="fill:#fff"></path><path d="M596.65,102.39s-6.81,1-11,5.72a38.27,38.27,0,0,0-6.24,9.91S590.41,117.16,596.65,102.39Z" style="fill:#fff"></path><path d="M620.24,137.76s-6.72-1.45-12.3,1.57a38.21,38.21,0,0,0-9.27,7.15S609.28,149.46,620.24,137.76Z" style="fill:#fff"></path><path d="M617.93,177.94s-4.84-4.88-11.16-5.39a38.38,38.38,0,0,0-11.67.94S602.36,181.78,617.93,177.94Z" style="fill:#fff"></path><path d="M591.61,199.5s-2.79-6.29-8.52-9a38.12,38.12,0,0,0-11.23-3.29S575.69,197.54,591.61,199.5Z" style="fill:#fff"></path><path d="M577.75,134.3s-6.8,1-11,5.73a38.21,38.21,0,0,0-6.23,9.91S571.51,149.07,577.75,134.3Z" style="fill:#fff"></path><path d="M466.23,125.44s3,6.17,8.85,8.67A38.39,38.39,0,0,0,486.44,137S482.21,126.78,466.23,125.44Z" style="fill:#fff"></path><path d="M563.29,92.91s-5.51,4.11-6.9,10.3a38.3,38.3,0,0,0-.72,11.68S564.9,108.87,563.29,92.91Z" style="fill:#fff"></path><path d="M542.51,73.47s-3.13,6.12-1.65,12.28a38.13,38.13,0,0,0,4.52,10.8S551,87.07,542.51,73.47Z" style="fill:#fff"></path><path d="M497.52,80s0,6.88,4.12,11.69a38.38,38.38,0,0,0,8.94,7.56S511.27,88.25,497.52,80Z" style="fill:#fff"></path></g><g id="freepik--cones-2--inject-41"><path d="M644.94,366.92l-14.41,57.34h33.36l-14.41-57.34A2.34,2.34,0,0,0,644.94,366.92Z" style="fill:#FB923C"></path><path d="M663.89,424.76H630.53a.51.51,0,0,1-.4-.19.55.55,0,0,1-.09-.43l14.41-57.34h0a2.84,2.84,0,0,1,5.51,0l14.41,57.34a.48.48,0,0,1-.09.43A.49.49,0,0,1,663.89,424.76Zm-32.72-1h32.07L649,367a1.84,1.84,0,0,0-3.57,0Z" style="fill:#263238"></path><rect x="626.24" y="422.94" width="41.93" height="3.68" style="fill:#FB923C"></rect><path d="M668.17,427.12H626.24a.5.5,0,0,1-.5-.5v-3.68a.5.5,0,0,1,.5-.5h41.93a.5.5,0,0,1,.5.5v3.68A.5.5,0,0,1,668.17,427.12Zm-41.43-1h40.93v-2.68H626.74Z" style="fill:#263238"></path><polygon points="643.48 372.74 639.52 388.46 654.89 388.46 650.94 372.74 643.48 372.74" style="fill:#fff"></polygon><path d="M654.89,389H639.53a.51.51,0,0,1-.4-.19.51.51,0,0,1-.09-.43l4-15.73a.51.51,0,0,1,.49-.38h7.46a.49.49,0,0,1,.48.38l4,15.73a.51.51,0,0,1-.1.43A.49.49,0,0,1,654.89,389Zm-14.72-1h14.08l-3.7-14.73h-6.68Z" style="fill:#263238"></path><polygon points="660.95 412.56 656.99 396.83 637.42 396.83 633.47 412.56 660.95 412.56" style="fill:#fff"></polygon><path d="M661,413.06H633.47a.51.51,0,0,1-.4-.19.54.54,0,0,1-.09-.43l4-15.73a.49.49,0,0,1,.48-.38H657a.51.51,0,0,1,.49.38l3.95,15.73a.48.48,0,0,1-.09.43A.49.49,0,0,1,661,413.06Zm-26.84-1H660.3l-3.7-14.73H637.81Z" style="fill:#263238"></path><path d="M303.5,366.92l-14.41,57.34h33.36L308,366.92A2.33,2.33,0,0,0,303.5,366.92Z" style="fill:#FB923C"></path><path d="M322.45,424.76H289.09a.51.51,0,0,1-.4-.19.55.55,0,0,1-.09-.43L303,366.8a2.84,2.84,0,0,1,5.51,0l14.41,57.34a.51.51,0,0,1-.09.43A.51.51,0,0,1,322.45,424.76Zm-32.72-1H321.8L307.55,367a1.84,1.84,0,0,0-3.57,0h0Zm13.77-56.84h0Z" style="fill:#263238"></path><rect x="284.8" y="422.94" width="41.93" height="3.68" style="fill:#FB923C"></rect><path d="M326.73,427.12H284.8a.5.5,0,0,1-.5-.5v-3.68a.5.5,0,0,1,.5-.5h41.93a.5.5,0,0,1,.5.5v3.68A.5.5,0,0,1,326.73,427.12Zm-41.43-1h40.93v-2.68H285.3Z" style="fill:#263238"></path><polygon points="302.04 372.74 298.08 388.46 313.45 388.46 309.5 372.74 302.04 372.74" style="fill:#fff"></polygon><path d="M313.45,389H298.08a.5.5,0,0,1-.48-.62l3.95-15.73a.51.51,0,0,1,.49-.38h7.46a.51.51,0,0,1,.48.38l3.95,15.73a.48.48,0,0,1-.09.43A.49.49,0,0,1,313.45,389Zm-14.72-1h14.08l-3.7-14.73h-6.68Z" style="fill:#263238"></path><polygon points="319.5 412.56 315.55 396.83 295.98 396.83 292.03 412.56 319.5 412.56" style="fill:#fff"></polygon><path d="M319.51,413.06H292a.51.51,0,0,1-.4-.19.54.54,0,0,1-.09-.43l4-15.73a.49.49,0,0,1,.48-.38h19.57a.51.51,0,0,1,.49.38L320,412.44a.5.5,0,0,1-.48.62Zm-26.84-1h26.19l-3.7-14.73H296.37Z" style="fill:#263238"></path></g><g id="freepik--character-2--inject-41"><rect x="372.16" y="266.52" width="23.48" height="7.55" style="fill:#fff"></rect><path d="M395.64,274.57H372.16a.5.5,0,0,1-.5-.5v-7.55a.5.5,0,0,1,.5-.5h23.48a.5.5,0,0,1,.5.5v7.55A.5.5,0,0,1,395.64,274.57Zm-23-1h22.48V267H372.66Z" style="fill:#263238"></path><path d="M370.18,310.7l-5.07-4.35a8.15,8.15,0,0,0-5.29-2H321.59a8.2,8.2,0,0,0-4.23,1.18L309,310.7H288.56v16.4H390.45V310.7Z" style="fill:#999"></path><path d="M390.45,327.6H288.56a.5.5,0,0,1-.5-.5V310.7a.5.5,0,0,1,.5-.5h20.28l8.26-5a8.6,8.6,0,0,1,4.49-1.26h38.23a8.6,8.6,0,0,1,5.61,2.07l4.93,4.23h20.09a.5.5,0,0,1,.5.5v16.4A.5.5,0,0,1,390.45,327.6Zm-101.39-1H390V311.2H370.18a.5.5,0,0,1-.33-.12l-5.07-4.35a7.63,7.63,0,0,0-5-1.83H321.59a7.56,7.56,0,0,0-4,1.11l-8.39,5.12a.59.59,0,0,1-.26.07H289.06Z" style="fill:#263238"></path><path d="M373.21,316.33,368.14,312a8.15,8.15,0,0,0-5.29-2H324.62a8.14,8.14,0,0,0-4.22,1.18L312,316.33H291.59v16.4H393.48v-16.4Z" style="fill:#6e6e6e"></path><path d="M393.48,333.23H291.59a.5.5,0,0,1-.5-.5v-16.4a.5.5,0,0,1,.5-.5h20.28l8.27-5a8.54,8.54,0,0,1,4.48-1.26h38.23a8.6,8.6,0,0,1,5.61,2.07l4.93,4.23h20.09a.5.5,0,0,1,.5.5v16.4A.5.5,0,0,1,393.48,333.23Zm-101.39-1H393v-15.4H373.21a.5.5,0,0,1-.33-.12l-5.07-4.35a7.63,7.63,0,0,0-5-1.83H324.62a7.56,7.56,0,0,0-4,1.11l-8.39,5.11a.5.5,0,0,1-.26.08H292.09Z" style="fill:#263238"></path><path d="M345.24,308.23a17.58,17.58,0,1,0,17.57,17.57A17.57,17.57,0,0,0,345.24,308.23Zm0,31.51a13.94,13.94,0,1,1,13.94-13.94A13.94,13.94,0,0,1,345.24,339.74Z" style="fill:#263238"></path><path d="M345.24,343.88a18.08,18.08,0,1,1,18.07-18.08A18.1,18.1,0,0,1,345.24,343.88Zm0-35.15a17.08,17.08,0,1,0,17.07,17.07A17.09,17.09,0,0,0,345.24,308.73Zm0,31.51a14.44,14.44,0,1,1,14.44-14.44A14.46,14.46,0,0,1,345.24,340.24Zm0-27.87a13.44,13.44,0,1,0,13.44,13.43A13.45,13.45,0,0,0,345.24,312.37Z" style="fill:#263238"></path><path d="M379,280.91s.2,4.28-.7,6a12.47,12.47,0,0,1-2.14,2.85l2.13,2.8s1,5.16,2.21,5.88,6.48.89,6.48.89-.16,10.43-.17,10.94,11.79-3.33,11.79-3.33-1.79-7.75-.86-10.11a48.33,48.33,0,0,1,3.9-7.14c1.44-2.35-1.56-10.14-7.27-13.56s-8.1-3.68-11.56-2.24S379,280.91,379,280.91Z" style="fill:#fff"></path><path d="M386.89,310.75a.52.52,0,0,1-.35-.09.55.55,0,0,1-.21-.45c0-.44.13-8.37.16-10.44-1.41-.06-5.16-.28-6.23-.94-1.25-.77-2.19-5-2.41-6.1L375.78,290a.5.5,0,0,1,.05-.67,11.86,11.86,0,0,0,2.05-2.71c.69-1.28.69-4.55.64-5.71v-.05c0-.24.4-6,4.12-7.5s6.4-1.09,12,2.28a17.81,17.81,0,0,1,7.6,10.37,5.53,5.53,0,0,1-.16,3.89l-.34.54a43.78,43.78,0,0,0-3.52,6.51c-.72,1.82.39,7.7.88,9.81a.5.5,0,0,1-.33.59C390,310.24,387.62,310.75,386.89,310.75Zm-10.05-21,1.87,2.46a.4.4,0,0,1,.09.2c.48,2.38,1.37,5.18,2,5.56s4.22.75,6.22.81a.51.51,0,0,1,.49.51c0,.37-.13,8.28-.17,10.43,1.48-.28,6.29-1.74,10.7-3.17-.37-1.72-1.58-7.79-.73-10a44.24,44.24,0,0,1,3.6-6.66l.34-.55a4.55,4.55,0,0,0,0-3.12,17,17,0,0,0-7.15-9.75c-5.69-3.42-7.86-3.55-11.11-2.21-3,1.25-3.47,6.21-3.5,6.61s.17,4.47-.76,6.19A13,13,0,0,1,376.84,289.76Z" style="fill:#263238"></path><path d="M380.34,285.89c0,.75.21,1.37.52,1.38s.57-.59.6-1.34-.21-1.36-.52-1.37S380.36,285.15,380.34,285.89Z" style="fill:#263238"></path><path d="M380.73,293.31a2,2,0,0,1-1.17-.34.5.5,0,1,1,.57-.81,1.36,1.36,0,0,0,1.64-.26.5.5,0,0,1,.7.08.5.5,0,0,1-.07.7A2.6,2.6,0,0,1,380.73,293.31Z" style="fill:#263238"></path><path d="M395.54,288.44a16.15,16.15,0,0,1-5.56-2.57,8.85,8.85,0,0,1-3.76-5.59,15.37,15.37,0,0,1-.11-1.89L384.25,283s-.69.32-3.73-.8a32,32,0,0,1-5.56-2.73s.52-5.63,4.18-8.08a23,23,0,0,1,8-3.18,16.15,16.15,0,0,1,11.62.19c5.91,2.58,8.6,9.51,8.09,15s-4.19,8.07-6.6,8.68S395.54,288.44,395.54,288.44Z" style="fill:#263238"></path><path d="M399.74,292.56c-2.2,0-4.05-2.88-4.52-3.68a16.81,16.81,0,0,1-5.54-2.61,9.53,9.53,0,0,1-3.92-5.69l-1,2.56a.53.53,0,0,1-.26.27c-.26.12-1.19.29-4.12-.79a32.1,32.1,0,0,1-5.65-2.78.51.51,0,0,1-.23-.47c0-.24.58-5.9,4.41-8.45a23.42,23.42,0,0,1,8.1-3.24,16.44,16.44,0,0,1,12,.22c6.21,2.7,8.92,9.83,8.39,15.46-.56,6-4.65,8.54-7,9.13A2.46,2.46,0,0,1,399.74,292.56Zm-13.63-14.67.1,0a.5.5,0,0,1,.4.5,14,14,0,0,0,.11,1.81,8.37,8.37,0,0,0,3.55,5.25,15.91,15.91,0,0,0,5.38,2.48.49.49,0,0,1,.33.25c.58,1.06,2.44,3.72,4.12,3.32,2.07-.52,5.72-2.85,6.22-8.25.49-5.15-2.08-12-7.79-14.46a15.65,15.65,0,0,0-11.23-.18l-.11,0a22.51,22.51,0,0,0-7.77,3.09c-2.95,2-3.76,6.24-3.93,7.41a32.82,32.82,0,0,0,5.2,2.52,10.17,10.17,0,0,0,3.21.82l1.74-4.29A.51.51,0,0,1,386.11,277.89Z" style="fill:#263238"></path><path d="M391.09,288.3s1.69-4.91,4.87-2.76,1.35,6-1.26,7.49-4.09-.3-4.09-.3" style="fill:#fff"></path><path d="M392.7,294.1a3.3,3.3,0,0,1-2.48-1.05l.77-.64c.05,0,1.27,1.41,3.47.18a5.2,5.2,0,0,0,2.69-4,3,3,0,0,0-1.47-2.67,2,2,0,0,0-1.81-.38c-1.22.41-2.08,2.22-2.31,2.88l-.95-.33c0-.11,1-2.85,2.94-3.5a3,3,0,0,1,2.69.5,3.94,3.94,0,0,1,1.91,3.54,6.23,6.23,0,0,1-3.2,4.79A4.54,4.54,0,0,1,392.7,294.1Z" style="fill:#263238"></path><path d="M405,274.88s5.47,0,9.12,3.7,2.28,20.09,2.34,23.68a35,35,0,0,0,.35,5.14,20.92,20.92,0,0,1-7.38,1,23.7,23.7,0,0,1-8.32-2s5.67-11.8,6.06-19S407.09,280.25,405,274.88Z" style="fill:#263238"></path><path d="M410.23,308.88h-.79a23.75,23.75,0,0,1-8.51-2,.51.51,0,0,1-.26-.28.53.53,0,0,1,0-.39c.06-.11,5.63-11.79,6-18.77.33-6.1,0-6.85-1.4-10.44l-.75-1.91a.5.5,0,0,1,.06-.46.49.49,0,0,1,.41-.22c.23,0,5.73,0,9.48,3.85,3.14,3.2,2.76,14.81,2.55,21,0,1.31-.08,2.35-.07,3a33.42,33.42,0,0,0,.35,5.06.51.51,0,0,1-.32.56A21,21,0,0,1,410.23,308.88Zm-8.42-2.73a23.38,23.38,0,0,0,7.67,1.72,21.64,21.64,0,0,0,6.81-.81,39.79,39.79,0,0,1-.3-4.79c0-.66,0-1.7.07-3,.19-5.65.58-17.41-2.27-20.31a13.32,13.32,0,0,0-8-3.5c.16.42.32.81.46,1.17,1.46,3.67,1.81,4.54,1.46,10.86S402.88,303.85,401.81,306.15Z" style="fill:#263238"></path><path d="M355.63,318.77a8.69,8.69,0,0,1,6.19-3.44,23.67,23.67,0,0,1,8.26,1s-6.2,5.38-8.14,6.3-5.05,0-5.05,0Z" style="fill:#FB923C"></path><path d="M359.75,323.58a11.52,11.52,0,0,1-3-.43.5.5,0,0,1-.33-.32l-1.27-3.9a.53.53,0,0,1,.06-.43,9.11,9.11,0,0,1,6.57-3.66,23.82,23.82,0,0,1,8.45,1.05.52.52,0,0,1,.34.38.5.5,0,0,1-.17.47c-.25.22-6.26,5.45-8.25,6.38A5.59,5.59,0,0,1,359.75,323.58Zm-2.47-1.32c.75.18,3,.64,4.44,0s5.66-4.21,7.33-5.63a22.85,22.85,0,0,0-7.19-.76,8.3,8.3,0,0,0-5.68,3Z" style="fill:#263238"></path><path d="M384,306.33c-.55.28-8.6,10.57-10.3,15s-4.27,10.34-4.56,14.44-1,9.17-.44,9.93,7.85,3.64,15.06,3.77,19.5,1,21.47-1.19.79-16.08,1.48-22.2,1.07-8-.54-11.93-7-8.19-11.37-9S384,306.33,384,306.33Z" style="fill:#FB923C"></path><path d="M395.57,350.26c-2.27,0-4.83-.07-7.58-.16-1.5-.05-2.93-.09-4.2-.11-7.29-.13-14.72-3.06-15.44-4-.51-.64-.39-2.46,0-6.76.11-1.17.23-2.38.31-3.52.25-3.54,2.11-8.27,3.75-12.44.29-.74.58-1.45.84-2.14,1.66-4.32,9.65-14.83,10.54-15.29l.08,0c.27-.08,6.6-2.05,11-1.2S405,309.89,406.67,314c1.54,3.79,1.32,5.72.72,10.87l-.14,1.31c-.26,2.25-.26,5.54-.26,9,0,7.21-.08,12.05-1.35,13.45S400.76,350.26,395.57,350.26Zm-11.3-43.48c-.94.85-8.44,10.5-10.07,14.75-.26.69-.54,1.41-.84,2.15-1.61,4.1-3.44,8.75-3.68,12.14-.08,1.15-.2,2.37-.31,3.55-.23,2.34-.53,5.55-.23,6,.59.64,7.7,3.45,14.67,3.58,1.27,0,2.71.06,4.21.11,6.51.21,15.41.49,16.88-1.13,1.1-1.23,1.1-7.64,1.09-12.79,0-3.51,0-6.82.26-9.13l.15-1.31c.59-5.11.79-6.83-.66-10.38-1.53-3.76-6.77-7.92-11-8.73C390.8,304.88,385,306.55,384.27,306.78Z" style="fill:#263238"></path><path d="M381.77,306.59a30,30,0,0,1,8.11-6.31c4.56-2.24,5.59-.74,9.93,2s7.47,5.49,7.76,9,1.56,6,.05,5.68-3.77-4.73-6.88-7.66a12.84,12.84,0,0,0-10.66-3.1c-3.49.47-8.82,3.48-9.58,2.53S381.77,306.59,381.77,306.59Z" style="fill:#FB923C"></path><path d="M407.86,317.44a1.45,1.45,0,0,1-.35,0c-1-.23-2-1.57-3.42-3.43a35.39,35.39,0,0,0-3.69-4.36,12.42,12.42,0,0,0-10.25-3,27.13,27.13,0,0,0-5.18,1.56c-2.85,1.07-4.25,1.55-4.86.78a1.21,1.21,0,0,1-.25-1c.17-.88,1.23-1.58,1.59-1.79a30.08,30.08,0,0,1,8.21-6.37c4.2-2.06,5.75-1,8.84,1,.48.31,1,.66,1.58,1,3.76,2.37,7.65,5.33,8,9.35a29,29,0,0,0,.48,3.11c.3,1.5.48,2.4,0,2.89A.91.91,0,0,1,407.86,317.44Zm-15.73-11.92a12.77,12.77,0,0,1,8.95,3.37,35.23,35.23,0,0,1,3.8,4.47c1.09,1.44,2.21,2.92,2.85,3.06a.35.35,0,0,0,.15,0,11.19,11.19,0,0,0-.31-1.94c-.17-.9-.39-2-.5-3.23-.24-2.85-2.49-5.42-7.53-8.58l-1.59-1c-3-2-4.16-2.73-7.84-.92a29.45,29.45,0,0,0-8,6.19.41.41,0,0,1-.13.1c-.43.25-1.11.79-1.18,1.16a.21.21,0,0,0,.05.19c.36.16,2.31-.56,3.73-1.09a27.54,27.54,0,0,1,5.39-1.62A16.12,16.12,0,0,1,392.13,305.52Zm-10.36,1.07h0Z" style="fill:#263238"></path><path d="M350.33,318.67s-3.19-2.58-3.64-3.57-1.37-4.84-2.38-6.28-4.6-1.23-6-1.09-1.59,1.2-2.33,2.31,2.38,1.47,2.38,1.47a8.29,8.29,0,0,0,1.78,3.76,9.24,9.24,0,0,0,4,2l1.82,4.28Z" style="fill:#fff"></path><path d="M346,322l-.14,0a.54.54,0,0,1-.32-.29l-1.73-4a9.2,9.2,0,0,1-4-2.07A8.41,8.41,0,0,1,338,312c-.77-.12-2.15-.44-2.5-1.19a1,1,0,0,1,.11-1c.16-.24.3-.48.42-.7a2.89,2.89,0,0,1,2.28-1.83c1.54-.16,5.25-.36,6.42,1.3a20.26,20.26,0,0,1,1.86,4.68c.23.74.43,1.39.57,1.69a20,20,0,0,0,3.5,3.39.49.49,0,0,1,.18.41.51.51,0,0,1-.22.39L346.27,322A.49.49,0,0,1,346,322Zm-5.77-13.91a17.84,17.84,0,0,0-1.82.1c-.76.08-1,.48-1.51,1.32-.14.25-.28.5-.46.77.07.25,1.1.58,2,.69a.5.5,0,0,1,.44.41,7.85,7.85,0,0,0,1.64,3.51,8.79,8.79,0,0,0,3.73,1.84.56.56,0,0,1,.36.29l1.59,3.73,3.27-2.16a16.25,16.25,0,0,1-3.25-3.32,16.86,16.86,0,0,1-.62-1.81,20,20,0,0,0-1.72-4.39C343.39,308.38,341.83,308.13,340.22,308.13Z" style="fill:#263238"></path><path d="M358.3,320.93s5.09-3.29,10.45-6.26,14.75-5.84,18.82-4.72,8.47,8.56,3.79,14.72a61.83,61.83,0,0,1-20.55,17.12c-8.33,4.14-13.71,3.68-18.4-1.68s-8.78-8.35-9.54-13.95a6.55,6.55,0,0,1,4.37-7.5c.51-.06,1.38-1.53,5.16-1.58S358.3,320.93,358.3,320.93Z" style="fill:#FB923C"></path><path d="M361.28,345c-3.58,0-6.55-1.52-9.24-4.6-1-1.16-2-2.2-3-3.21-3.41-3.62-6.1-6.47-6.72-11a7.31,7.31,0,0,1,1.39-5.72,6.6,6.6,0,0,1,3.42-2.35l.28-.19a7.92,7.92,0,0,1,4.93-1.39h.09c3.21,0,5.27,2.58,6,3.65,1.34-.85,5.62-3.55,10.05-6,5.06-2.8,14.81-6,19.2-4.77,2.34.65,4.6,3.08,5.6,6.06a10,10,0,0,1-1.55,9.46A62.16,62.16,0,0,1,371,342.24C367.29,344.1,364.09,345,361.28,345Zm-8.81-27.46h-.06A7.07,7.07,0,0,0,348,318.8a1.63,1.63,0,0,1-.73.35,6.1,6.1,0,0,0-3.93,7c.58,4.2,3.17,7,6.45,10.44,1,1,1.95,2.07,3,3.24,4.51,5.15,9.67,5.6,17.8,1.56a61,61,0,0,0,20.37-17,9,9,0,0,0,1.41-8.53c-.9-2.63-2.92-4.86-4.93-5.41-3.77-1-13,1.66-18.45,4.68-5.28,2.92-10.36,6.21-10.41,6.24a.51.51,0,0,1-.71-.18S355.85,317.58,352.47,317.58Z" style="fill:#263238"></path><path d="M363.69,330.15a.52.52,0,0,1-.43-.24l-5.38-8.72a.5.5,0,1,1,.85-.52l5.38,8.71a.51.51,0,0,1-.42.77Z" style="fill:#263238"></path><path d="M351.62,308.57a9.15,9.15,0,0,1,2.4-.23c.92.11,3.1,1.83,3.79,3.1s1.26,2.17,1.26,2.17l1.72,1.84-3.33,1.6-3.32-2.63s-2.87-1.38-3.44-1.72-.46-.81-1.95-2.3-.57-1.72.23-1.49l.8.23Z" style="fill:#fff"></path><path d="M357.46,317.55a.5.5,0,0,1-.31-.1l-3.28-2.61c-.4-.19-2.88-1.38-3.43-1.71a2.26,2.26,0,0,1-.73-.78,8.72,8.72,0,0,0-1.31-1.59c-.54-.54-1.22-1.34-.84-2,.25-.42.83-.54,1.56-.34l.66.19,1.69-.53h0a9.8,9.8,0,0,1,2.59-.24c1.12.14,3.41,2,4.16,3.36s1.24,2.14,1.24,2.15l1.66,1.76a.48.48,0,0,1,.13.43.5.5,0,0,1-.27.36l-3.33,1.6A.42.42,0,0,1,357.46,317.55Zm-8.94-8.21a3.33,3.33,0,0,0,.58.71,10.29,10.29,0,0,1,1.45,1.75,1.24,1.24,0,0,0,.41.47c.43.26,2.41,1.22,3.39,1.7a.21.21,0,0,1,.1.06l3.08,2.44,2.43-1.18L358.7,314c-.08-.12-.64-1-1.33-2.29a7.56,7.56,0,0,0-3.41-2.83,8,8,0,0,0-2.21.21l-1.82.57a.48.48,0,0,1-.29,0l-.8-.23A1.57,1.57,0,0,0,348.52,309.34Z" style="fill:#263238"></path><path d="M353.45,310.56h0a12,12,0,0,1-3.85-1,.5.5,0,0,1-.24-.67.49.49,0,0,1,.66-.24,11.09,11.09,0,0,0,3.49.87.5.5,0,0,1,.47.53A.51.51,0,0,1,353.45,310.56Z" style="fill:#263238"></path><path d="M584.07,361.91H572.68l-.16.24a20.59,20.59,0,0,0-2.95-.24c-13.88,0-25.14,14.49-25.14,32.36s11.26,32.35,25.14,32.35c1,0,9.25-.1,10.21-.24l-7.1.24h11.39c13.89,0,25.14-14.49,25.14-32.35S598,361.91,584.07,361.91Z" style="fill:#263238"></path><path d="M584.07,427.12H572.68a.47.47,0,0,1-.17,0l-2.94,0c-14.14,0-25.64-14.74-25.64-32.85s11.5-32.86,25.64-32.86a20.49,20.49,0,0,1,2.71.2.51.51,0,0,1,.4-.2h11.39c14.14,0,25.64,14.74,25.64,32.86S598.21,427.12,584.07,427.12Zm-3.86-1h3.86c13.59,0,24.64-14.29,24.64-31.85s-11.05-31.86-24.64-31.86l-11.14,0a.51.51,0,0,1-.49.22,19,19,0,0,0-2.87-.24c-13.58,0-24.64,14.29-24.64,31.86s11.06,31.85,24.64,31.85l5-.07,5.21-.17A.51.51,0,0,1,580.21,426.12Z" style="fill:#263238"></path><path d="M350.78,361.91H339.39l-.16.24a20.59,20.59,0,0,0-3-.24c-13.88,0-25.14,14.49-25.14,32.36s11.26,32.35,25.14,32.35a20.59,20.59,0,0,0,3-.24l.16.24h11.39c13.89,0,25.14-14.49,25.14-32.35S364.67,361.91,350.78,361.91Z" style="fill:#263238"></path><path d="M350.78,427.12H339.39a.51.51,0,0,1-.4-.2,20.49,20.49,0,0,1-2.71.2c-14.14,0-25.64-14.74-25.64-32.85s11.5-32.86,25.64-32.86a20.49,20.49,0,0,1,2.71.2.51.51,0,0,1,.4-.2h11.39c14.14,0,25.64,14.74,25.64,32.86S364.92,427.12,350.78,427.12Zm-11.13-1h11.13c13.59,0,24.64-14.29,24.64-31.85s-11.05-31.86-24.64-31.86l-11.14,0a.5.5,0,0,1-.49.22,19,19,0,0,0-2.87-.24c-13.59,0-24.64,14.29-24.64,31.86s11.05,31.85,24.64,31.85a19,19,0,0,0,2.87-.24.52.52,0,0,1,.49.22Z" style="fill:#263238"></path><path d="M692.45,362.86H687l-4.9-34.33a8.49,8.49,0,0,0-8.4-7.28H643.06l-49.74-52.78a28.48,28.48,0,0,0-20.74-9H440.73c-5.75,0-11.25,58.45-15.22,62.6L199,361.62V402H538.58l85.22-.6L687,397.23V397h5.19a2.08,2.08,0,0,0,2.08-2.08v-30.2A1.81,1.81,0,0,0,692.45,362.86Z" style="fill:#fff"></path><path d="M538.59,402.48H199a.5.5,0,0,1-.5-.5V361.62a.5.5,0,0,1,.41-.5l226.29-39.48c1.59-2.06,3.66-14.31,5.65-26.15,3.71-22,6.4-36.48,9.84-36.48H572.58a29.09,29.09,0,0,1,21.11,9.12l49.59,52.62h30.41a9,9,0,0,1,8.9,7.71l4.83,33.91h5a2.31,2.31,0,0,1,2.31,2.3v30.2a2.59,2.59,0,0,1-2.58,2.58h-4.74a.48.48,0,0,1-.42.28l-63.19,4.15Zm-339.05-1h339l85.21-.6,62.73-4.12a.52.52,0,0,1,.47-.31h5.19a1.58,1.58,0,0,0,1.58-1.58v-30.2a1.31,1.31,0,0,0-1.31-1.3H687a.51.51,0,0,1-.5-.43l-4.89-34.33a8,8,0,0,0-7.91-6.86H643.06a.48.48,0,0,1-.36-.16L593,268.81a28.13,28.13,0,0,0-20.38-8.8H440.73c-2.85,0-6.32,20.6-8.85,35.64-2.25,13.36-4.2,24.91-6,26.8a.51.51,0,0,1-.28.15L199.54,362Z" style="fill:#263238"></path><path d="M596,395.78v5.79l27.81-.19L687,397.23V397h5.19a2.08,2.08,0,0,0,1.85-1.17Z" style="fill:#263238"></path><path d="M596,402.07a.5.5,0,0,1-.35-.14.49.49,0,0,1-.15-.36v-5.79a.5.5,0,0,1,.5-.5h98a.49.49,0,0,1,.42.24.48.48,0,0,1,0,.48,2.56,2.56,0,0,1-2.29,1.45h-4.74a.48.48,0,0,1-.42.28l-63.19,4.15-27.84.19Zm.5-5.79v4.79l27.3-.19,62.73-4.12a.52.52,0,0,1,.47-.31h5.19a1.47,1.47,0,0,0,.69-.17Z" style="fill:#263238"></path><path d="M623.8,401.38h0a2.08,2.08,0,0,0-.14-4.15H591.71L473.55,333.36H440.73c-5.75,0-11.25,2.34-15.22-.07L199,355.06V402H538.58Z" style="fill:#263238"></path><path d="M199,402.48a.5.5,0,0,1-.5-.5V355.06a.5.5,0,0,1,.45-.5L425.46,332.8a.46.46,0,0,1,.3.07c2.46,1.48,5.54,1,9.1.54a41.56,41.56,0,0,1,5.87-.55h32.82a.46.46,0,0,1,.23.06l118.06,63.81h31.82a2.58,2.58,0,0,1,.17,5.15h0l-85.21.6Zm.5-1h339l85.2-.6a1.58,1.58,0,0,0-.12-3.15H591.71a.53.53,0,0,1-.24-.06l-118-63.81H440.73a40,40,0,0,0-5.73.54c-3.53.5-6.87,1-9.61-.59L199.54,355.52Zm424.26-.1h0Z" style="fill:#263238"></path><path d="M251.94,361.91H240.55l-7.47,11a39.55,39.55,0,0,0,0,42.77l7.47,11h11.39c13.89,0,25.15-14.49,25.15-32.35S265.83,361.91,251.94,361.91Z" style="fill:#263238"></path><path d="M251.94,427.12H240.55a.49.49,0,0,1-.41-.22l-7.47-11a40,40,0,0,1,0-43.34l7.47-11a.52.52,0,0,1,.41-.22h11.39c14.14,0,25.65,14.74,25.65,32.86S266.08,427.12,251.94,427.12Zm-11.12-1h11.12c13.59,0,24.65-14.29,24.65-31.85s-11.06-31.86-24.65-31.86H240.82l-7.32,10.75a39,39,0,0,0,0,42.21Z" style="fill:#263238"></path><ellipse cx="237.45" cy="394.27" rx="25.14" ry="32.35" style="fill:#636363"></ellipse><path d="M237.45,427.12c-14.14,0-25.65-14.74-25.65-32.85s11.51-32.86,25.65-32.86,25.64,14.74,25.64,32.86S251.59,427.12,237.45,427.12Zm0-64.71c-13.59,0-24.65,14.29-24.65,31.86s11.06,31.85,24.65,31.85,24.64-14.29,24.64-31.85S251,362.41,237.45,362.41Z" style="fill:#263238"></path><ellipse cx="237.45" cy="394.27" rx="20.06" ry="25.81" style="fill:#fff"></ellipse><path d="M237.45,420.57c-11.34,0-20.56-11.8-20.56-26.3S226.11,368,237.45,368,258,379.76,258,394.27,248.78,420.57,237.45,420.57Zm0-51.61c-10.79,0-19.56,11.35-19.56,25.31s8.77,25.3,19.56,25.3S257,408.22,257,394.27,248.23,369,237.45,369Z" style="fill:#263238"></path><path d="M241.68,394.27c0,3-1.89,5.45-4.23,5.45s-4.24-2.44-4.24-5.45,1.9-5.46,4.24-5.46S241.68,391.25,241.68,394.27Z" style="fill:#fff"></path><path d="M237.45,400.22c-2.62,0-4.74-2.67-4.74-6s2.12-6,4.74-6,4.73,2.67,4.73,6S240.06,400.22,237.45,400.22Zm0-10.91c-2.06,0-3.74,2.22-3.74,5s1.68,5,3.74,5,3.73-2.22,3.73-5S239.51,389.31,237.45,389.31Z" style="fill:#263238"></path><path d="M505.71,361.91H494.32l-7.47,11a39.55,39.55,0,0,0,0,42.77l7.47,11h11.39c13.89,0,25.15-14.49,25.15-32.35S519.6,361.91,505.71,361.91Z" style="fill:#263238"></path><path d="M505.71,427.12H494.32a.49.49,0,0,1-.41-.22l-7.47-11a40,40,0,0,1,0-43.34l7.47-11a.52.52,0,0,1,.41-.22h11.39c14.14,0,25.65,14.74,25.65,32.86S519.85,427.12,505.71,427.12Zm-11.12-1h11.12c13.59,0,24.65-14.29,24.65-31.85s-11.06-31.86-24.65-31.86H494.59l-7.32,10.75a39,39,0,0,0,0,42.21Z" style="fill:#263238"></path><ellipse cx="491.22" cy="394.27" rx="25.14" ry="32.35" style="fill:#636363"></ellipse><path d="M491.22,427.12c-14.14,0-25.65-14.74-25.65-32.85s11.51-32.86,25.65-32.86,25.64,14.74,25.64,32.86S505.36,427.12,491.22,427.12Zm0-64.71c-13.59,0-24.65,14.29-24.65,31.86s11.06,31.85,24.65,31.85,24.64-14.29,24.64-31.85S504.81,362.41,491.22,362.41Z" style="fill:#263238"></path><ellipse cx="491.22" cy="394.27" rx="20.06" ry="25.81" style="fill:#fff"></ellipse><path d="M491.22,420.57c-11.34,0-20.56-11.8-20.56-26.3S479.88,368,491.22,368s20.56,11.8,20.56,26.31S502.55,420.57,491.22,420.57Zm0-51.61c-10.79,0-19.56,11.35-19.56,25.31s8.77,25.3,19.56,25.3,19.56-11.35,19.56-25.3S502,369,491.22,369Z" style="fill:#263238"></path><path d="M495.45,394.27c0,3-1.89,5.45-4.23,5.45s-4.24-2.44-4.24-5.45,1.9-5.46,4.24-5.46S495.45,391.25,495.45,394.27Z" style="fill:#fff"></path><path d="M491.22,400.22c-2.62,0-4.74-2.67-4.74-6s2.12-6,4.74-6,4.74,2.67,4.74,6S493.83,400.22,491.22,400.22Zm0-10.91c-2.06,0-3.74,2.22-3.74,5s1.68,5,3.74,5,3.74-2.22,3.74-5S493.28,389.31,491.22,389.31Z" style="fill:#263238"></path><path d="M593.32,268.47c-.41-.44-.85-.83-1.29-1.24H489.31V318H640Z" style="fill:#263238"></path><path d="M640,318.49H489.31a.51.51,0,0,1-.5-.5V267.23a.51.51,0,0,1,.5-.5H592a.48.48,0,0,1,.34.14l.31.28c.34.31.68.63,1,1l46.66,49.51a.51.51,0,0,1,.09.54A.5.5,0,0,1,640,318.49Zm-150.17-1h149L593,268.81h0q-.47-.48-1-.93l-.17-.15h-102Z" style="fill:#263238"></path><path d="M599.13,362.86l-5.93-41.61h-38l-49.74-52.78a28.49,28.49,0,0,0-20.74-9h-121a21.1,21.1,0,0,0-15.22,6.5l-77.31,51.68L212.52,343a52.49,52.49,0,0,0-21.28,16.83l-2.8,3.77a21.35,21.35,0,0,0-4.24,12.79V402h22.55v-8.53c0-20.86,15.17-37.77,33.89-37.77h0c16.67,0,27,13.52,29.63,31.88l2,14.42H460.82v-8.53c0-20.86,8.56-37.77,31.57-37.77,20.5,0,27.83,13.52,31,31.88l2.4,13.82,73.31-4.15V397h6V362.86ZM406.8,317.69H282.74l66.38-44.08a19.25,19.25,0,0,1,13.75-5.79H406.8Z" style="fill:#FB923C"></path><path d="M460.82,402.48H272.31a.49.49,0,0,1-.49-.43l-2.05-14.42c-2.74-19.4-13.91-31.45-29.13-31.45-18.41,0-33.39,16.72-33.39,37.27V402a.5.5,0,0,1-.5.5H184.2a.5.5,0,0,1-.5-.5v-25.6A22.06,22.06,0,0,1,188,363.29l2.8-3.77a53,53,0,0,1,21.48-17L271,317.23l77.19-51.61A21.69,21.69,0,0,1,363.69,259h121a29.07,29.07,0,0,1,21.1,9.12l49.59,52.62H593.2a.49.49,0,0,1,.49.43l5.88,41.19h5.55a.5.5,0,0,1,.5.5V397a.5.5,0,0,1-.5.5h-5.53a.51.51,0,0,1-.43.28l-73.31,4.15a.47.47,0,0,1-.52-.42l-2.41-13.81c-3.84-22.06-13-31.47-30.53-31.47-27,0-31.07,23.35-31.07,37.27V402A.5.5,0,0,1,460.82,402.48Zm-188.07-1H460.32v-8c0-24.68,11.39-38.27,32.07-38.27,23,0,28.9,17.26,31.52,32.29l2.33,13.38,72.43-4.09a.49.49,0,0,1,.46-.31h5.49V363.37h-5.49a.5.5,0,0,1-.49-.43l-5.88-41.19H555.21a.52.52,0,0,1-.37-.16L505.1,268.81a28.09,28.09,0,0,0-20.37-8.8h-121a20.74,20.74,0,0,0-14.86,6.34.27.27,0,0,1-.08.07L271.44,318.1l-58.72,25.35a52.11,52.11,0,0,0-21.08,16.67l-2.8,3.77a21,21,0,0,0-4.14,12.49v25.1h21.55v-8c0-21.1,15.43-38.27,34.39-38.27,15.76,0,27.3,12.38,30.12,32.31ZM406.8,318.19H282.74a.5.5,0,0,1-.48-.36.48.48,0,0,1,.2-.56l66.34-44a19.83,19.83,0,0,1,14.07-5.9H406.8a.5.5,0,0,1,.5.5v49.86A.5.5,0,0,1,406.8,318.19Zm-122.41-1H406.3V268.33H362.87a18.87,18.87,0,0,0-13.4,5.63.27.27,0,0,1-.08.07Z" style="fill:#263238"></path><path d="M525.74,290l-20.27-21.51a28.49,28.49,0,0,0-20.74-9H433.16L406.8,285.88v31.81H375L290.7,402h123Z" style="fill:#fff"></path><path d="M413.74,402.48h-123a.5.5,0,0,1-.47-.31.51.51,0,0,1,.11-.54l84.3-84.3a.5.5,0,0,1,.35-.14H406.3V285.88a.49.49,0,0,1,.15-.36l26.36-26.36a.51.51,0,0,1,.35-.15h51.57a29.07,29.07,0,0,1,21.1,9.12l20.28,21.51a.51.51,0,0,1,0,.7l-112,112A.52.52,0,0,1,413.74,402.48Zm-121.84-1H413.54L525.05,290,505.1,268.81a28.09,28.09,0,0,0-20.37-8.8H433.37L407.3,286.08v31.61a.5.5,0,0,1-.5.5H375.2Z" style="fill:#263238"></path><path d="M501.33,276l28.22,28.86a7.64,7.64,0,0,1,1.94,3.46h0a7.59,7.59,0,0,1-7.36,9.42h-109V267.82H482A27,27,0,0,1,501.33,276Z" style="fill:#263238"></path><path d="M524.13,318.19h-109a.5.5,0,0,1-.5-.5V267.83a.5.5,0,0,1,.5-.5H482a27.65,27.65,0,0,1,19.66,8.27l28.22,28.86a8.08,8.08,0,0,1,.59,10.62A8,8,0,0,1,524.13,318.19Zm-108.52-1H524.13a7.08,7.08,0,0,0,5.06-12L501,276.3a26.61,26.61,0,0,0-18.94-8H415.61Z" style="fill:#263238"></path><polygon points="474.89 267.82 463.93 267.82 424.58 317.69 435.55 317.69 474.89 267.82" style="fill:#fff"></polygon><path d="M435.55,318.19h-11a.5.5,0,0,1-.39-.81l39.35-49.86a.49.49,0,0,1,.39-.19h11a.48.48,0,0,1,.45.28.49.49,0,0,1,0,.52L435.94,318A.51.51,0,0,1,435.55,318.19Zm-9.93-1h9.68l38.56-48.86h-9.69Z" style="fill:#263238"></path><path d="M501.33,276a26.94,26.94,0,0,0-9.29-6.19l-37.83,47.93H484.5l25.74-32.63Z" style="fill:#fff"></path><path d="M484.5,318.19H454.21a.5.5,0,0,1-.39-.81l37.82-47.93a.5.5,0,0,1,.58-.16,27.46,27.46,0,0,1,9.47,6.31l8.91,9.11a.5.5,0,0,1,0,.66L484.89,318A.51.51,0,0,1,484.5,318.19Zm-29.26-1h29l25.33-32.09L501,276.3h0a26.3,26.3,0,0,0-8.77-5.94Z" style="fill:#263238"></path><path d="M593.2,321.25h80.49a8.49,8.49,0,0,1,8.4,7.28l4.9,34.33H599.13Z" style="fill:#FB923C"></path><path d="M687,363.37H599.13a.5.5,0,0,1-.49-.43l-5.94-41.62a.49.49,0,0,1,.12-.4.49.49,0,0,1,.38-.17h80.49a9,9,0,0,1,8.9,7.71l4.89,34.33a.51.51,0,0,1-.11.4A.53.53,0,0,1,687,363.37Zm-87.42-1h86.84l-4.81-33.76a8,8,0,0,0-7.91-6.86H593.77Z" style="fill:#263238"></path><rect x="631.43" y="340.01" width="38.17" height="15.68" style="fill:#fff"></rect><path d="M669.6,356.19H631.43a.5.5,0,0,1-.5-.5V340a.5.5,0,0,1,.5-.5H669.6a.5.5,0,0,1,.5.5v15.68A.5.5,0,0,1,669.6,356.19Zm-37.67-1H669.1V340.51H631.93Z" style="fill:#263238"></path><path d="M691.18,370.28H527.6a1,1,0,0,1,0-2H691.18a1,1,0,1,1,0,2Z" style="fill:#263238"></path><path d="M454.51,370.28H273.23a1,1,0,0,1,0-2H454.51a1,1,0,0,1,0,2Z" style="fill:#263238"></path><path d="M213.05,370.28H192.3a1,1,0,1,1,0-2h20.75a1,1,0,0,1,0,2Z" style="fill:#263238"></path><path d="M624.84,340.27H588.77a9,9,0,0,0-8,5l-6,12.06a3.63,3.63,0,0,0,3.25,5.25h46.89Z" style="fill:#fff"></path><path d="M624.84,363.05H578a4.13,4.13,0,0,1-3.69-6l6-12.07a9.43,9.43,0,0,1,8.48-5.24h36.07a.5.5,0,0,1,.5.5v22.28A.5.5,0,0,1,624.84,363.05Zm-36.07-22.28a8.45,8.45,0,0,0-7.59,4.69l-6,12.06a3.13,3.13,0,0,0,2.8,4.53h46.39V340.77Z" style="fill:#263238"></path><polygon points="624.84 340.27 595.77 340.27 598.95 362.55 624.84 362.55 624.84 340.27" style="fill:#263238"></polygon><path d="M624.84,363.05H599a.49.49,0,0,1-.49-.43l-3.18-22.28a.49.49,0,0,1,.12-.4.48.48,0,0,1,.37-.17h29.07a.5.5,0,0,1,.5.5v22.28A.5.5,0,0,1,624.84,363.05Zm-25.45-1h25V340.77h-28Z" style="fill:#263238"></path><polygon points="683.63 340.27 674.83 340.27 674.71 362.55 686.81 362.55 683.63 340.27" style="fill:#263238"></polygon><path d="M686.81,363.05h-12.1a.5.5,0,0,1-.35-.14.51.51,0,0,1-.15-.36l.12-22.28a.5.5,0,0,1,.5-.5h8.8a.49.49,0,0,1,.49.43l3.18,22.28a.5.5,0,0,1-.49.57Zm-11.6-1h11l-3-21.28h-7.87Z" style="fill:#263238"></path><rect x="270.27" y="307.3" width="23.15" height="19.59" rx="2" style="fill:#263238"></rect><path d="M291.42,327.39H272.27a2.5,2.5,0,0,1-2.5-2.5V309.3a2.5,2.5,0,0,1,2.5-2.5h19.15a2.5,2.5,0,0,1,2.5,2.5v15.59A2.5,2.5,0,0,1,291.42,327.39ZM272.27,307.8a1.5,1.5,0,0,0-1.5,1.5v15.59a1.5,1.5,0,0,0,1.5,1.5h19.15a1.5,1.5,0,0,0,1.5-1.5V309.3a1.5,1.5,0,0,0-1.5-1.5Z" style="fill:#263238"></path><rect x="381.57" y="326.89" width="22.26" height="8.9" style="fill:#263238"></rect><path d="M403.83,336.29H381.57a.5.5,0,0,1-.5-.5v-8.9a.5.5,0,0,1,.5-.5h22.26a.5.5,0,0,1,.5.5v8.9A.5.5,0,0,1,403.83,336.29Zm-21.76-1h21.26v-7.9H382.07Z" style="fill:#263238"></path><path d="M409.18,391.5a.5.5,0,0,1-.5-.5V323.33a.5.5,0,0,1,.5-.5.5.5,0,0,1,.5.5V391A.5.5,0,0,1,409.18,391.5Z" style="fill:#263238"></path><path d="M450.13,394.77h-173a.5.5,0,0,1-.5-.47c-2-30.79-18-40.17-18.14-40.26a.5.5,0,0,1,.49-.87c.16.09,16.4,9.6,18.61,40.6H450.13a.5.5,0,0,1,.5.5A.5.5,0,0,1,450.13,394.77Z" style="fill:#263238"></path><path d="M532.05,367.46a.48.48,0,0,1-.46-.32c-.09-.22-8.75-21.94-36.6-21.94-15.32,0-26.67,6.21-33.74,18.45a.5.5,0,1,1-.86-.5c7.25-12.58,18.9-18.95,34.6-18.95,28.55,0,37.44,22.35,37.53,22.58a.5.5,0,0,1-.29.65Z" style="fill:#263238"></path><path d="M285.41,360V345.78h3.35a6.45,6.45,0,0,1,2.72.47,2.79,2.79,0,0,1,1.39,1.46,6.63,6.63,0,0,1,.41,2.5v5.2a7,7,0,0,1-.41,2.57,2.86,2.86,0,0,1-1.37,1.53,5.81,5.81,0,0,1-2.63.5Zm2.6-1.81h.79a2,2,0,0,0,1.28-.31,1.42,1.42,0,0,0,.48-.93,12.19,12.19,0,0,0,.08-1.48V350a6.51,6.51,0,0,0-.12-1.39,1.16,1.16,0,0,0-.51-.77,2.44,2.44,0,0,0-1.25-.25H288Z" style="fill:#263238"></path><path d="M295.2,360V345.78h3.4a7.52,7.52,0,0,1,2.44.34,2.83,2.83,0,0,1,1.51,1.17,4.26,4.26,0,0,1,.52,2.25,7.31,7.31,0,0,1-.16,1.55,2.89,2.89,0,0,1-.54,1.16,2.39,2.39,0,0,1-1,.75l2,7h-2.6L299,353.49H297.8V360Zm2.6-8.15h.8a2.73,2.73,0,0,0,1.21-.22,1.29,1.29,0,0,0,.64-.7,3.4,3.4,0,0,0,.19-1.24,2.73,2.73,0,0,0-.39-1.61,1.78,1.78,0,0,0-1.51-.54h-.94Z" style="fill:#263238"></path><path d="M305.09,360V345.78h2.56V360Z" style="fill:#263238"></path><path d="M312,360l-2.86-14.23h2.3l1.88,10.07,1.75-10.07h2.36L314.6,360Z" style="fill:#263238"></path><path d="M319,360V345.78h2.56V360Z" style="fill:#263238"></path><path d="M323.75,360V345.78h1.81L329,353.9v-8.12h2.15V360h-1.73l-3.48-8.5V360Z" style="fill:#263238"></path><path d="M336.89,360.21a3.73,3.73,0,0,1-2.23-.6,3.3,3.3,0,0,1-1.18-1.7,8.31,8.31,0,0,1-.36-2.59v-4.78a8.62,8.62,0,0,1,.35-2.64,3,3,0,0,1,1.24-1.69,4.39,4.39,0,0,1,2.45-.59,4.68,4.68,0,0,1,2.32.49,2.87,2.87,0,0,1,1.24,1.42,5.93,5.93,0,0,1,.37,2.24v.74h-2.47v-.81a6.58,6.58,0,0,0-.1-1.18,1.23,1.23,0,0,0-.39-.75,1.39,1.39,0,0,0-.94-.25,1.31,1.31,0,0,0-1,.33,1.63,1.63,0,0,0-.39.88,8.68,8.68,0,0,0-.08,1.19v6a6.11,6.11,0,0,0,.13,1.29,1.49,1.49,0,0,0,.45.83,1.44,1.44,0,0,0,.95.29,1.37,1.37,0,0,0,1-.32,1.73,1.73,0,0,0,.47-.88,6.37,6.37,0,0,0,.13-1.33v-1.34H337.3v-1.63h3.86V360h-1.67l-.19-1.4a2.8,2.8,0,0,1-.85,1.15A2.45,2.45,0,0,1,336.89,360.21Z" style="fill:#263238"></path><path d="M351,360.21a4.17,4.17,0,0,1-2.15-.51,3.14,3.14,0,0,1-1.3-1.46,6.31,6.31,0,0,1-.49-2.38l2.23-.44a6.68,6.68,0,0,0,.2,1.46,2.07,2.07,0,0,0,.51,1,1.22,1.22,0,0,0,.91.34,1,1,0,0,0,.89-.38,1.59,1.59,0,0,0,.27-.95,2.61,2.61,0,0,0-.42-1.53,6.91,6.91,0,0,0-1.13-1.2l-1.79-1.58a5.32,5.32,0,0,1-1.21-1.45,4.08,4.08,0,0,1-.44-2,3.36,3.36,0,0,1,1-2.6,3.8,3.8,0,0,1,2.69-.91,3.92,3.92,0,0,1,1.67.31,2.64,2.64,0,0,1,1.06.85,3.74,3.74,0,0,1,.59,1.24,7.52,7.52,0,0,1,.25,1.47l-2.22.38a6.77,6.77,0,0,0-.15-1.19,1.66,1.66,0,0,0-.4-.83,1.13,1.13,0,0,0-.85-.3,1.08,1.08,0,0,0-.89.38,1.42,1.42,0,0,0-.31.94,2.17,2.17,0,0,0,.3,1.19,4.59,4.59,0,0,0,.86.95l1.78,1.57a7.57,7.57,0,0,1,1.5,1.73,4.46,4.46,0,0,1,.62,2.4,3.6,3.6,0,0,1-.45,1.81,3.15,3.15,0,0,1-1.24,1.24A3.78,3.78,0,0,1,351,360.21Z" style="fill:#263238"></path><path d="M359.93,360.21a4.25,4.25,0,0,1-2.45-.62,3.25,3.25,0,0,1-1.24-1.68,7.91,7.91,0,0,1-.35-2.45v-5.08a8.31,8.31,0,0,1,.35-2.53,3.1,3.1,0,0,1,1.24-1.65,4.42,4.42,0,0,1,2.45-.58,4.5,4.5,0,0,1,2.31.5,2.75,2.75,0,0,1,1.19,1.43,6.19,6.19,0,0,1,.35,2.16v1.2h-2.5v-1.23a9.06,9.06,0,0,0-.06-1.09,1.33,1.33,0,0,0-.33-.78,1.23,1.23,0,0,0-.94-.29,1.33,1.33,0,0,0-1,.31,1.5,1.5,0,0,0-.39.82,7,7,0,0,0-.09,1.17V356a5.58,5.58,0,0,0,.12,1.27,1.37,1.37,0,0,0,.45.75,1.41,1.41,0,0,0,.89.26,1.16,1.16,0,0,0,.92-.31,1.43,1.43,0,0,0,.34-.81,8.07,8.07,0,0,0,.07-1.15v-1.28h2.5v1.14a7,7,0,0,1-.33,2.24,3,3,0,0,1-1.17,1.53A4.23,4.23,0,0,1,359.93,360.21Z" style="fill:#263238"></path><path d="M365.62,360V345.78h2.59v6h2.9v-6h2.6V360h-2.6v-6.43h-2.9V360Z" style="fill:#263238"></path><path d="M379.75,360.21a4.42,4.42,0,0,1-2.4-.57,3.1,3.1,0,0,1-1.29-1.61,7.51,7.51,0,0,1-.38-2.5v-5.32a7.2,7.2,0,0,1,.38-2.47,3.06,3.06,0,0,1,1.29-1.58,4.61,4.61,0,0,1,2.4-.54,4.72,4.72,0,0,1,2.44.54,3.1,3.1,0,0,1,1.28,1.58,7,7,0,0,1,.39,2.47v5.34a7.08,7.08,0,0,1-.39,2.47,3.21,3.21,0,0,1-1.28,1.61A4.52,4.52,0,0,1,379.75,360.21Zm0-1.92a1.36,1.36,0,0,0,1-.28,1.41,1.41,0,0,0,.41-.77,5.2,5.2,0,0,0,.11-1.08v-6.55a4.89,4.89,0,0,0-.11-1.07,1.31,1.31,0,0,0-.41-.75,1.41,1.41,0,0,0-1-.27,1.39,1.39,0,0,0-.93.27,1.33,1.33,0,0,0-.42.75,4.89,4.89,0,0,0-.11,1.07v6.55a6,6,0,0,0,.1,1.08,1.41,1.41,0,0,0,.41.77A1.38,1.38,0,0,0,379.75,358.29Z" style="fill:#263238"></path><path d="M389.65,360.21a4.45,4.45,0,0,1-2.41-.57A3,3,0,0,1,386,358a7.25,7.25,0,0,1-.39-2.5v-5.32a7,7,0,0,1,.39-2.47,3,3,0,0,1,1.28-1.58,5.69,5.69,0,0,1,4.84,0,3.1,3.1,0,0,1,1.28,1.58,6.73,6.73,0,0,1,.4,2.47v5.34a6.84,6.84,0,0,1-.4,2.47,3.21,3.21,0,0,1-1.28,1.61A4.45,4.45,0,0,1,389.65,360.21Zm0-1.92a1.35,1.35,0,0,0,1-.28,1.42,1.42,0,0,0,.42-.77,5.22,5.22,0,0,0,.1-1.08v-6.55a4.93,4.93,0,0,0-.1-1.07,1.33,1.33,0,0,0-.42-.75,1.4,1.4,0,0,0-1-.27,1.44,1.44,0,0,0-.94.27,1.33,1.33,0,0,0-.42.75,4.93,4.93,0,0,0-.1,1.07v6.55a6,6,0,0,0,.09,1.08,1.42,1.42,0,0,0,.42.77A1.37,1.37,0,0,0,389.65,358.29Z" style="fill:#263238"></path><path d="M395.67,360V345.78h2.6v12.44h3.45V360Z" style="fill:#263238"></path></g><g id="freepik--cones-1--inject-41"><path d="M446,366.92l-14.41,57.34H465l-14.41-57.34A2.34,2.34,0,0,0,446,366.92Z" style="fill:#FB923C"></path><path d="M465,424.76H431.62a.49.49,0,0,1-.39-.19.48.48,0,0,1-.09-.43l14.41-57.34h0a2.83,2.83,0,0,1,5.5,0l14.42,57.34a.55.55,0,0,1-.09.43A.53.53,0,0,1,465,424.76Zm-32.72-1h32.08L450.08,367a1.83,1.83,0,0,0-3.56,0Z" style="fill:#263238"></path><rect x="427.33" y="422.94" width="41.93" height="3.68" style="fill:#FB923C"></rect><path d="M469.27,427.12H427.33a.51.51,0,0,1-.5-.5v-3.68a.5.5,0,0,1,.5-.5h41.94a.5.5,0,0,1,.5.5v3.68A.51.51,0,0,1,469.27,427.12Zm-41.44-1h40.94v-2.68H427.83Z" style="fill:#263238"></path><polygon points="444.57 372.74 440.62 388.46 455.98 388.46 452.03 372.74 444.57 372.74" style="fill:#fff"></polygon><path d="M456,389H440.62a.51.51,0,0,1-.4-.19.54.54,0,0,1-.09-.43l4-15.73a.49.49,0,0,1,.48-.38H452a.51.51,0,0,1,.49.38l4,15.73a.51.51,0,0,1-.09.43A.51.51,0,0,1,456,389Zm-14.72-1h14.08l-3.7-14.73H445Z" style="fill:#263238"></path><polygon points="462.04 412.56 458.09 396.83 438.52 396.83 434.56 412.56 462.04 412.56" style="fill:#fff"></polygon><path d="M462,413.06H434.56a.49.49,0,0,1-.39-.19.48.48,0,0,1-.09-.43L438,396.71a.51.51,0,0,1,.49-.38h19.57a.49.49,0,0,1,.48.38l4,15.73a.51.51,0,0,1-.1.43A.49.49,0,0,1,462,413.06Zm-26.84-1h26.2l-3.7-14.73H438.91Z" style="fill:#263238"></path><path d="M154.07,366.92l-14.41,57.34H173l-14.41-57.34A2.34,2.34,0,0,0,154.07,366.92Z" style="fill:#FB923C"></path><path d="M173,424.76H139.66a.49.49,0,0,1-.39-.19.48.48,0,0,1-.09-.43l14.41-57.34h0a2.83,2.83,0,0,1,5.5,0l14.41,57.34a.48.48,0,0,1-.09.43A.49.49,0,0,1,173,424.76Zm-32.72-1h32.08L158.12,367a1.83,1.83,0,0,0-3.56,0Z" style="fill:#263238"></path><rect x="135.37" y="422.94" width="41.93" height="3.68" style="fill:#FB923C"></rect><path d="M177.31,427.12H135.37a.51.51,0,0,1-.5-.5v-3.68a.5.5,0,0,1,.5-.5h41.94a.5.5,0,0,1,.5.5v3.68A.51.51,0,0,1,177.31,427.12Zm-41.44-1h40.94v-2.68H135.87Z" style="fill:#263238"></path><polygon points="152.61 372.74 148.66 388.46 164.02 388.46 160.07 372.74 152.61 372.74" style="fill:#fff"></polygon><path d="M164,389H148.66a.51.51,0,0,1-.4-.19.54.54,0,0,1-.09-.43l4-15.73a.49.49,0,0,1,.48-.38h7.46a.49.49,0,0,1,.48.38l4,15.73a.51.51,0,0,1-.09.43A.51.51,0,0,1,164,389Zm-14.72-1h14.08l-3.7-14.73H153Z" style="fill:#263238"></path><polygon points="170.08 412.56 166.13 396.83 146.56 396.83 142.6 412.56 170.08 412.56" style="fill:#fff"></polygon><path d="M170.08,413.06H142.6a.49.49,0,0,1-.39-.19.48.48,0,0,1-.09-.43l3.95-15.73a.51.51,0,0,1,.49-.38h19.57a.49.49,0,0,1,.48.38l3.95,15.73a.48.48,0,0,1-.09.43A.49.49,0,0,1,170.08,413.06Zm-26.84-1h26.2l-3.7-14.73H147Z" style="fill:#263238"></path></g><g id="freepik--Floor--inject-41"><path d="M723.49,427.12H20.82a.5.5,0,0,1-.5-.5.5.5,0,0,1,.5-.5H723.49a.5.5,0,0,1,.5.5A.5.5,0,0,1,723.49,427.12Z" style="fill:#263238"></path></g><g id="freepik--speech-bubble--inject-41"><path d="M137.85,150a29.46,29.46,0,0,0-19.79,51.29l-5.54,11.08,10.87-7.24A29.46,29.46,0,1,0,137.85,150Z" style="fill:#263238"></path><path d="M112.52,212.83a.5.5,0,0,1-.44-.72l5.37-10.75a30,30,0,1,1,6,4.31l-10.61,7.08A.54.54,0,0,1,112.52,212.83Zm25.33-62.37a29,29,0,0,0-19.45,50.42.5.5,0,0,1,.11.59l-4.7,9.4,9.3-6.2a.51.51,0,0,1,.52,0,29,29,0,1,0,14.22-54.19Z" style="fill:#263238"></path><path d="M137.34,146.9a29.46,29.46,0,0,0-19.79,51.28L112,209.26,122.88,202a29.46,29.46,0,1,0,14.46-55.12Z" style="fill:#fff"></path><path d="M112,209.76a.5.5,0,0,1-.33-.12.51.51,0,0,1-.12-.6l5.38-10.74a30.09,30.09,0,1,1,6,4.3l-10.61,7.08A.57.57,0,0,1,112,209.76Zm25.33-62.36a29,29,0,0,0-19.45,50.41.52.52,0,0,1,.11.6l-4.7,9.39,9.3-6.2a.51.51,0,0,1,.52,0,29,29,0,1,0,14.22-54.18Z" style="fill:#263238"></path><path d="M133.32,189.54h-.24a2.5,2.5,0,0,1-1.82-1.07l-11.12-16.07a2.5,2.5,0,1,1,4.11-2.84l9.44,13.63,28.17-27.6a2.5,2.5,0,0,1,3.5,3.58l-30.29,29.67A2.54,2.54,0,0,1,133.32,189.54Z" style="fill:#FB923C"></path><path d="M133.32,190H133a3,3,0,0,1-2.19-1.28l-11.12-16.07a3,3,0,1,1,4.93-3.42l9.1,13.15,27.75-27.18a3,3,0,1,1,4.2,4.28l-30.29,29.67A3,3,0,0,1,133.32,190ZM122.19,169a2,2,0,0,0-1.64,3.14l11.12,16.07a2,2,0,0,0,1.46.85,2.07,2.07,0,0,0,1.59-.56L165,158.8a2,2,0,0,0-1.38-3.43,2.11,2.11,0,0,0-1.42.57L134,183.54a.53.53,0,0,1-.4.14.51.51,0,0,1-.36-.22l-9.44-13.63A2,2,0,0,0,122.19,169Z" style="fill:#263238"></path></g><g id="freepik--character-1--inject-41"><path d="M92,211.31s2.19,2.3,3.18,7.68a26.62,26.62,0,0,1,.16,3.71c0,.37,1.83,5,1.72,6.11s-2.53,1.26-2.53,1.26-2.72,9.62-3.52,9.77a25.7,25.7,0,0,1-4.15-.43l-.35,4.37L68,242.37l2.2-9.73s.76-14.72,4.17-20.48S88.48,207.28,92,211.31Z" style="fill:#fff"></path><path d="M86.54,244.28h0l-18.58-1.41a.49.49,0,0,1-.37-.2.53.53,0,0,1-.08-.41l2.19-9.73c0-.52.8-14.82,4.23-20.63,1.44-2.42,4.2-3.94,7.77-4.27,4.23-.4,8.65,1,10.73,3.34.18.19,2.32,2.57,3.32,7.93a25.66,25.66,0,0,1,.16,3.59v.21c0,.1.24.76.44,1.34a17.47,17.47,0,0,1,1.28,4.81c-.11,1.24-1.85,1.59-2.64,1.69-2.73,9.59-3.49,9.73-3.82,9.79a18.86,18.86,0,0,1-3.79-.34l-.3,3.83A.51.51,0,0,1,86.54,244.28Zm-18-2.36,17.51,1.33.31-3.88a.48.48,0,0,1,.19-.35.51.51,0,0,1,.39-.1,28.48,28.48,0,0,0,3.88.44c.55-.7,2.05-5.26,3.23-9.42a.51.51,0,0,1,.45-.37c.82,0,2-.36,2.07-.81a21.9,21.9,0,0,0-1.23-4.4,7.77,7.77,0,0,1-.5-1.65v-.23a24.45,24.45,0,0,0-.15-3.4c-1-5.14-3-7.4-3.06-7.42v0c-1.86-2.11-6-3.38-9.9-3-3.24.31-5.73,1.65-7,3.79-3.3,5.6-4.09,20.11-4.1,20.26Zm22.24-2.51Z" style="fill:#263238"></path><polygon points="91.04 239.84 85.43 236.79 86.89 239.41 91.04 239.84" style="fill:#263238"></polygon><path d="M91,240.34H91l-4.15-.42a.51.51,0,0,1-.39-.26L85,237a.5.5,0,0,1,.68-.68l5.61,3.05a.5.5,0,0,1-.24.94Zm-3.84-1.4,1.41.14-1.91-1Z" style="fill:#263238"></path><path d="M93,233.45h-.06a2.85,2.85,0,0,1-2.38-3,.52.52,0,0,1,.49-.51.48.48,0,0,1,.51.49c0,1.84,1.43,2,1.49,2a.5.5,0,0,1,0,1Z" style="fill:#263238"></path><path d="M94.31,220.4a.52.52,0,0,1-.48-.33.58.58,0,0,0-.31-.36c-.18,0-.46.09-.78.36A.51.51,0,0,1,92,220a.49.49,0,0,1,.06-.7,1.86,1.86,0,0,1,1.7-.56,1.62,1.62,0,0,1,1,1,.51.51,0,0,1-.31.64Z" style="fill:#263238"></path><path d="M67.39,206.71c3-3.68,11.84-5,15.2-4a52.46,52.46,0,0,1,6.9,2.42l2,.46s3.31.44,3.34.46-2.55,4.12-2.76,5.3c-1.13.26-5.36-.75-4.7.49s3.7,3.84,3,4.57-3,2.6-3,2.6,1.09,2.71-.3,2.93-3.84-2-4.38-.36-4.74,12-5.18,12.1-7.25-1-7.25-1-2.71-6.62-4.54-11S64.37,210.4,67.39,206.71Z" style="fill:#263238"></path><path d="M77.29,234.15a63.58,63.58,0,0,1-7.22-1,.5.5,0,0,1-.38-.31s-2.71-6.62-4.55-11c-2-4.72-1.13-11.8,1.86-15.45h0c3.25-4,12.39-5.14,15.72-4.21a52.6,52.6,0,0,1,7,2.44c.19,0,.44.09.8.18l1,.24h0l1.73.24a10.72,10.72,0,0,1,1.72.26.5.5,0,0,1,.25.32.49.49,0,0,1,0,.39,29.31,29.31,0,0,0-2.7,5.13.52.52,0,0,1-.38.4,8.47,8.47,0,0,1-2.17,0,13.19,13.19,0,0,0-2.12-.07A13.75,13.75,0,0,0,89,213.17c1.29,1.48,2.41,2.75,1.61,3.55-.59.6-2.16,1.89-2.8,2.41a3.73,3.73,0,0,1,.1,2.64,1.22,1.22,0,0,1-.91.62,4.47,4.47,0,0,1-2.22-.52c-.59-.24-1.32-.54-1.6-.41,0,0-.1,0-.16.23s-4.62,12.13-5.5,12.43A.78.78,0,0,1,77.29,234.15Zm-6.78-2c2.83.48,5.87.93,6.65,1,.77-1.26,4.34-9.94,5-11.77a1.29,1.29,0,0,1,.69-.83,3.23,3.23,0,0,1,2.4.39,3.91,3.91,0,0,0,1.68.46.23.23,0,0,0,.2-.12,3.59,3.59,0,0,0-.29-2.13.5.5,0,0,1,.15-.57s2.31-1.86,3-2.56a10.36,10.36,0,0,0-1.66-2.19,11,11,0,0,1-1.4-1.8.83.83,0,0,1,0-.88c.39-.59,1.46-.53,3.18-.38.56,0,1.18.1,1.57.08A31.67,31.67,0,0,1,94,206.4l-.8-.11a14.28,14.28,0,0,1-1.92-.29c-.22,0-.53-.11-1-.22l-.85-.2a.34.34,0,0,1-.14-.05,52.3,52.3,0,0,0-6.82-2.38c-3.16-.89-11.77.32-14.67,3.88h0c-2.79,3.4-3.57,10-1.71,14.43C67.69,225.32,70,230.93,70.51,232.19Zm-3.12-25.48h0Z" style="fill:#263238"></path><path d="M86.23,223.71s-1.22-6.52-3-4.69-1.61,8.2-.63,9.33,2-.19,2-.19" style="fill:#fff"></path><path d="M83.43,229.3a1.61,1.61,0,0,1-1.24-.62c-1.23-1.41-1.29-8.07.65-10a1.27,1.27,0,0,1,1.34-.42c1.51.47,2.33,4.23,2.54,5.37a.5.5,0,0,1-.4.58.48.48,0,0,1-.58-.4c-.39-2.06-1.23-4.4-1.86-4.59,0,0-.13,0-.33.16-1.63,1.64-1.41,7.74-.61,8.65.25.29.44.28.5.28a1.17,1.17,0,0,0,.73-.45.5.5,0,0,1,.7-.08.49.49,0,0,1,.09.7,2.15,2.15,0,0,1-1.49.83Z" style="fill:#263238"></path><path d="M85.91,222.91a.5.5,0,0,1-.5-.5.49.49,0,0,1,.49-.5l12.51-.12h0a.5.5,0,0,1,.5.49.51.51,0,0,1-.49.51l-12.51.12Z" style="fill:#263238"></path><path d="M96.71,225.76a1.42,1.42,0,0,1-.56-.1.5.5,0,0,1-.26-.66.5.5,0,0,1,.65-.26s.56.18,1.25-.6a3.82,3.82,0,0,0,.43-2.69H95.74a.5.5,0,0,1-.5-.5.5.5,0,0,1,.5-.5h2.91a.49.49,0,0,1,.49.4c.06.28.51,2.71-.6,4A2.43,2.43,0,0,1,96.71,225.76Z" style="fill:#263238"></path><path d="M88.23,245l2.52,7.16a112.67,112.67,0,0,0-15.15-6.74,76.37,76.37,0,0,0-12.35-3.22L67,236.54S82.62,238.09,88.23,245Z" style="fill:#fff"></path><path d="M90.75,252.62a.46.46,0,0,1-.23-.06,113.44,113.44,0,0,0-15.08-6.7,77.17,77.17,0,0,0-12.26-3.21.49.49,0,0,1-.34-.77l3.79-5.62a.48.48,0,0,1,.46-.21c.64.06,15.85,1.64,21.53,8.6a.53.53,0,0,1,.08.15L91.23,252a.51.51,0,0,1-.15.55A.5.5,0,0,1,90.75,252.62ZM64.1,241.79a84.32,84.32,0,0,1,11.66,3.12,110.68,110.68,0,0,1,14.1,6.17l-2.07-5.87c-5-6.07-18.35-7.88-20.5-8.14Z" style="fill:#263238"></path><path d="M127.77,256.59l-15.91,26.69a.52.52,0,0,1-.58.24l-14.93-3.66a.53.53,0,0,1-.33-.78l13.8-23.95a.52.52,0,0,1,.48-.26l17,.92A.53.53,0,0,1,127.77,256.59Z" style="fill:#263238"></path><path d="M111.41,284l-.25,0-14.93-3.67a1,1,0,0,1-.7-.59,1,1,0,0,1,0-.92l13.8-23.95a1,1,0,0,1,1-.51l17,.92a1,1,0,0,1,.86.54,1,1,0,0,1,0,1h0l-15.91,26.7A1,1,0,0,1,111.41,284Zm-1.13-28.67-13.83,24,15,3.71,15.94-26.71s0,0,0,0Zm17.49,1.22h0Z" style="fill:#263238"></path><polygon points="126.51 256.15 112.19 280.18 98.36 276.78 110.73 255.31 126.51 256.15" style="fill:#fff"></polygon><path d="M112.19,280.68l-.12,0-13.83-3.39a.52.52,0,0,1-.34-.29.51.51,0,0,1,0-.45l12.37-21.48a.46.46,0,0,1,.46-.24l15.77.85a.47.47,0,0,1,.42.26.5.5,0,0,1,0,.49l-14.32,24A.5.5,0,0,1,112.19,280.68Zm-13.06-4.23L112,279.6l13.7-23L111,255.82Z" style="fill:#263238"></path><polygon points="112.32 262.72 108.98 262.47 110.64 259.47 113.98 259.72 112.32 262.72" style="fill:#fff"></polygon><path d="M112.32,263.22h0L109,263a.54.54,0,0,1-.41-.26.48.48,0,0,1,0-.48l1.66-3a.47.47,0,0,1,.47-.25l3.34.25a.49.49,0,0,1,.4.26.51.51,0,0,1,0,.48l-1.66,3A.51.51,0,0,1,112.32,263.22ZM109.8,262l2.24.17,1.13-2-2.24-.17Z" style="fill:#263238"></path><polygon points="109.39 267.37 106.05 267.12 107.71 264.12 111.05 264.37 109.39 267.37" style="fill:#fff"></polygon><path d="M109.39,267.87h0l-3.34-.25a.49.49,0,0,1-.4-.26.51.51,0,0,1,0-.48l1.66-3a.51.51,0,0,1,.48-.26l3.33.25a.53.53,0,0,1,.41.26.48.48,0,0,1,0,.48l-1.65,3A.5.5,0,0,1,109.39,267.87Zm-2.53-1.19,2.25.17,1.12-2-2.24-.17Z" style="fill:#263238"></path><polygon points="119.16 263.22 115.82 262.97 117.48 259.97 120.82 260.22 119.16 263.22" style="fill:#fff"></polygon><path d="M119.16,263.72h0l-3.34-.25a.49.49,0,0,1-.4-.26.51.51,0,0,1,0-.48l1.66-3a.5.5,0,0,1,.48-.26l3.34.25a.49.49,0,0,1,.4.26.51.51,0,0,1,0,.48l-1.66,3A.51.51,0,0,1,119.16,263.72Zm-2.52-1.19,2.24.17,1.13-2-2.25-.17Z" style="fill:#263238"></path><path d="M123.14,254.27l-2.48-.13a1,1,0,0,0,.29-.66c0-.67-.77-1.2-1.71-1.2s-1.72.53-1.72,1.2a.88.88,0,0,0,.18.51l-2.63-.13a1.12,1.12,0,0,0-1,.51l-1.25,1.87,9.83.49,1-1.48A.63.63,0,0,0,123.14,254.27Z" style="fill:#fff"></path><path d="M122.65,257.23h0l-9.83-.49a.5.5,0,0,1-.42-.28.5.5,0,0,1,0-.5l1.25-1.87a1.63,1.63,0,0,1,1.45-.73l1.92.1c0-.94,1-1.68,2.22-1.68s2.21.74,2.21,1.7a1.41,1.41,0,0,1,0,.2l1.73.09a1.13,1.13,0,0,1,.88,1.76l-1,1.48A.49.49,0,0,1,122.65,257.23Zm-8.93-1.45,8.67.44.83-1.24a.14.14,0,0,0,0-.14.13.13,0,0,0-.12-.07h0l-2.48-.13a.5.5,0,0,1-.33-.85.45.45,0,0,0,.15-.31c0-.33-.5-.7-1.21-.7s-1.22.37-1.22.7a.4.4,0,0,0,.09.23.49.49,0,0,1,0,.53.47.47,0,0,1-.46.25l-2.62-.13a.66.66,0,0,0-.57.29Z" style="fill:#263238"></path><path d="M111.48,261.59a.52.52,0,0,1-.21,0,.53.53,0,0,1-.28-.37l-.57-3.06a.5.5,0,0,1,.4-.58.51.51,0,0,1,.59.4l.44,2.36,4.47-2.6a.51.51,0,0,1,.69.18.51.51,0,0,1-.18.69l-5.1,3A.51.51,0,0,1,111.48,261.59Z" style="fill:#FB923C"></path><path d="M65.65,418l-1,7.3s1,1.58,4,1.9,5.23.79,5.23.79l-.82-7.09Z" style="fill:#fff"></path><path d="M73.89,428.52h-.1s-2.23-.47-5.18-.78c-3.23-.34-4.3-2.07-4.35-2.15a.49.49,0,0,1-.06-.32l1-7.29a.52.52,0,0,1,.24-.37.49.49,0,0,1,.44,0l7.42,2.89a.51.51,0,0,1,.31.41l.83,7.1a.5.5,0,0,1-.5.55Zm-8.68-3.32a5.08,5.08,0,0,0,3.5,1.53c2,.22,3.72.51,4.61.67l-.72-6.11-6.54-2.56Z" style="fill:#263238"></path><path d="M64.69,425.33l.14-1.06a28.45,28.45,0,0,0,8.81,1.56l.25,2.19s-2.22-.47-5.23-.79S64.69,425.33,64.69,425.33Z" style="fill:#fff"></path><path d="M73.89,428.52h-.1s-2.23-.47-5.18-.78c-3.23-.34-4.3-2.07-4.35-2.14a.53.53,0,0,1-.06-.33l.14-1.05a.48.48,0,0,1,.24-.37.47.47,0,0,1,.43,0,28.34,28.34,0,0,0,8.65,1.52.48.48,0,0,1,.47.44l.26,2.2a.5.5,0,0,1-.5.55Zm-8.68-3.32a5.06,5.06,0,0,0,3.5,1.53c2,.22,3.72.51,4.61.67l-.13-1.09A29.83,29.83,0,0,1,65.25,425Zm-.52.13h0Z" style="fill:#263238"></path><path d="M87.22,415l8.24,5.07a42.72,42.72,0,0,0,5.71,1.11,1.81,1.81,0,0,1,1.12,3.18c-1,.79-4.11,2.13-8.09,3-7.93,1.75-19.36,1.11-20.31.63a3.62,3.62,0,0,1-1.9-1.9c-.16-.63,0-6.82,0-6.82S84,417.87,87.22,415Z" style="fill:#fff"></path><path d="M81.31,429.05c-3.93,0-7-.28-7.64-.58a4.08,4.08,0,0,1-2.17-2.23c-.16-.65,0-5.49,0-6.95a.51.51,0,0,1,.44-.49c.12,0,11.93-1.44,14.95-4.15a.51.51,0,0,1,.6-.06l8.18,5a44.91,44.91,0,0,0,5.55,1.08,2.22,2.22,0,0,1,2.08,1.51,2.45,2.45,0,0,1-.68,2.54c-1,.85-4.28,2.23-8.31,3.12A64.93,64.93,0,0,1,81.31,429.05Zm-8.83-9.31c-.06,2.5-.1,5.85,0,6.26a3.19,3.19,0,0,0,1.64,1.58c.83.37,12.08,1.06,20-.68,4.11-.9,7.08-2.24,7.87-2.91a1.44,1.44,0,0,0,.38-1.47,1.23,1.23,0,0,0-1.2-.82,43.79,43.79,0,0,1-5.8-1.12.42.42,0,0,1-.14-.06l-7.94-4.89C84,418.13,74.64,419.46,72.48,419.74Z" style="fill:#263238"></path><path d="M95.31,425.33c4.65-1.41,6.56-2.56,7.32-3.34a2,2,0,0,1-.34,2.39c-1,.79-4.11,2.13-8.09,3-7.93,1.75-19.36,1.11-20.31.63A3.8,3.8,0,0,1,72,426.25C77.34,426.7,88.67,427.34,95.31,425.33Z" style="fill:#fff"></path><path d="M81.31,429.05c-3.93,0-7-.28-7.64-.58a4.26,4.26,0,0,1-2.1-2.05.49.49,0,0,1,.07-.48.52.52,0,0,1,.44-.19c4.72.4,16.42,1.12,23.08-.9h0c4.66-1.41,6.44-2.53,7.11-3.21a.53.53,0,0,1,.41-.15.49.49,0,0,1,.37.23,2.43,2.43,0,0,1-.44,3c-1,.85-4.28,2.23-8.31,3.12A64.93,64.93,0,0,1,81.31,429.05Zm-8.25-2.22a4,4,0,0,0,1.06.75c.83.37,12.08,1.06,20-.68,4.11-.9,7.08-2.24,7.87-2.91a1.41,1.41,0,0,0,.43-1.14,24.82,24.82,0,0,1-6.94,3C89.25,427.69,79.16,427.31,73.06,426.83Z" style="fill:#263238"></path><path d="M61.33,314.48s0,7.82,2.61,12,6.23,8,6.23,8.54,3.47,27.67,3.47,29.11.15,5.65-.72,7.83-4.2,15.93-6.23,28.24-1.16,15.35-1.16,15.35a15.56,15.56,0,0,0-.87,2.75,13.86,13.86,0,0,0,.44,2.18,16.64,16.64,0,0,0,8,.43,11.51,11.51,0,0,0-.29-3.48c-.44-1.16-.15-4.34-.15-5.07s5.5-38.23,5.5-41.13.15-33.6.15-33.6l1.3-21.29S72.05,316.07,61.33,314.48Z" style="fill:#919191"></path><path d="M69.59,421.72A17.88,17.88,0,0,1,65,421a.49.49,0,0,1-.33-.34,13.23,13.23,0,0,1-.45-2.31,12.93,12.93,0,0,1,.84-2.79c-.15-.82-.6-4.55,1.19-15.39,2-12.27,5.36-26.1,6.26-28.35.73-1.85.7-5.38.69-7.07v-.57c0-.85-1.33-11.61-2.31-19.47-.84-6.81-1.16-9.4-1.16-9.64s-.84-1.12-1.59-2.05a63.93,63.93,0,0,1-4.56-6.23c-2.66-4.27-2.69-12-2.69-12.28a.49.49,0,0,1,.18-.38.48.48,0,0,1,.4-.12c10.56,1.57,18.12,1.88,18.19,1.88A.46.46,0,0,1,80,316a.5.5,0,0,1,.13.37l-1.3,21.29c0,.28-.15,30.71-.15,33.57,0,2-2.35,18.67-4.08,30.86-.75,5.34-1.4,9.95-1.42,10.29,0,.14,0,.42,0,.76a15.85,15.85,0,0,0,.14,4.12,11.38,11.38,0,0,1,.32,3.68.5.5,0,0,1-.39.46A18.22,18.22,0,0,1,69.59,421.72Zm-4.08-1.63a16.82,16.82,0,0,0,4.08.63,20,20,0,0,0,3-.21,9.5,9.5,0,0,0-.27-2.88,14.53,14.53,0,0,1-.21-4.52c0-.32,0-.58,0-.73s.37-2.9,1.43-10.41c1.62-11.48,4.07-28.82,4.07-30.72,0-2.86.15-33.3.15-33.6l1.27-20.82c-1.83-.09-8.44-.5-17.2-1.77.06,1.87.42,7.79,2.52,11.17a63.68,63.68,0,0,0,4.49,6.14c1.4,1.74,1.81,2.26,1.81,2.67s.57,4.78,1.16,9.51c1.26,10.23,2.31,18.76,2.31,19.6v.56c0,1.89,0,5.42-.77,7.45-.88,2.22-4.18,15.94-6.19,28.14-2,11.93-1.18,15.11-1.17,15.14a.58.58,0,0,1,0,.32,14,14,0,0,0-.83,2.56A10.23,10.23,0,0,0,65.51,420.09Z" style="fill:#263238"></path><path d="M71.62,330.84s3.47,6.37,3.76,7,.29,5.65.29,6.81.73,23.17.58,26.22-2.46,12.45-3.18,18.1-2,22.16-2.18,22.6a8.94,8.94,0,0,0-.43,3.76,14.44,14.44,0,0,0,1,2.75,10.35,10.35,0,0,0-.14,3.19c.29.72,4.2,1.45,9.7-.15A14.49,14.49,0,0,0,88.85,416a6.46,6.46,0,0,1-.29-2.18,1.81,1.81,0,0,0-1.45-1.74l2.76-19.4s2.6-6.09,2.75-7.1-.58-3.48-.44-4.49,1.89-3.19,2-4.2,4.93-17.24,5.22-31.57-1.22-31.17-1.22-31.17-2.69,5.38-14,4.66-15.79-.87-21.15-3.19" style="fill:#919191"></path><path d="M74.78,422.54c-2.14,0-3.63-.43-3.92-1.14a9.05,9.05,0,0,1,.09-3.29,15.26,15.26,0,0,1-1-2.72,9.41,9.41,0,0,1,.45-4c0-.27.32-3.34.61-6.59.47-5.3,1.11-12.55,1.54-15.91.35-2.75,1.06-6.29,1.75-9.72a79.83,79.83,0,0,0,1.43-8.35c.11-2.18-.25-14.63-.45-21.32-.07-2.64-.13-4.54-.13-4.87,0-5.68-.2-6.49-.24-6.59-.28-.56-3.72-6.87-3.75-6.93a.5.5,0,1,1,.88-.48c.14.26,3.48,6.39,3.77,7,.1.21.34.68.34,7,0,.31.06,2.21.13,4.84.21,7.17.56,19.18.45,21.4a80,80,0,0,1-1.45,8.5c-.69,3.41-1.39,6.93-1.74,9.64-.43,3.34-1.07,10.59-1.53,15.87-.5,5.61-.6,6.63-.66,6.82a8.27,8.27,0,0,0-.42,3.5,13.35,13.35,0,0,0,1,2.64.47.47,0,0,1,0,.31,9.59,9.59,0,0,0-.17,2.91c.36.39,3.82,1.09,9.1-.44a14.6,14.6,0,0,0,7.41-4.68,7.88,7.88,0,0,1-.24-2.08,1.3,1.3,0,0,0-1-1.25.5.5,0,0,1-.39-.56l2.75-19.4a.5.5,0,0,1,0-.13c1-2.33,2.61-6.28,2.71-7a9.41,9.41,0,0,0-.21-2.09,9.3,9.3,0,0,1-.22-2.4,7.72,7.72,0,0,1,1.08-2.28,8.32,8.32,0,0,0,1-1.92c0-.18.13-.61.38-1.57,1.13-4.42,4.58-17.89,4.83-29.94.24-11.86-.77-25.57-1.11-29.81-1.5,1.62-5.29,4.34-13.63,3.81l-2.13-.14c-9.68-.61-14.1-.89-19.19-3.09a.5.5,0,0,1-.26-.65.5.5,0,0,1,.66-.27c4.93,2.14,9,2.39,18.85,3l2.13.13C95,319,97.73,314,97.76,313.93a.5.5,0,0,1,.94.18c0,.17,1.51,17,1.23,31.22-.25,12.17-3.72,25.73-4.86,30.18-.19.74-.34,1.33-.36,1.46a7.72,7.72,0,0,1-1.08,2.28,7.92,7.92,0,0,0-.95,1.92,9.41,9.41,0,0,0,.21,2.09,8.88,8.88,0,0,1,.22,2.4,72.17,72.17,0,0,1-2.76,7.16l-2.68,18.93a2.23,2.23,0,0,1,1.39,2.08,6.1,6.1,0,0,0,.26,2,.5.5,0,0,1,0,.46,14.87,14.87,0,0,1-8.1,5.27A23.41,23.41,0,0,1,74.78,422.54Z" style="fill:#263238"></path><path d="M82.62,418.21a.41.41,0,0,1-.16,0,.51.51,0,0,1-.32-.63s.32-.95.79-2.53a1.59,1.59,0,0,0-.58-1.81.49.49,0,0,1-.23-.47l.93-9.65a.5.5,0,1,1,1,.1l-.9,9.37a2.6,2.6,0,0,1,.75,2.75c-.48,1.6-.8,2.55-.8,2.55A.49.49,0,0,1,82.62,418.21Z" style="fill:#263238"></path><path d="M83.86,400.4h0a.5.5,0,0,1-.45-.55l1.46-15.17a.47.47,0,0,1,.27-.4,5.83,5.83,0,0,0,1.58-1.3c.26-.31-.32-1.14-.66-1.64s-.67-1-.54-1.38c.25-.73,3.09-10.69,5.54-23.25.13-.65.24-1.33.35-2a.51.51,0,0,1,.57-.42.5.5,0,0,1,.42.57c-.11.71-.23,1.4-.36,2.06-2.38,12.22-5.14,22-5.54,23.29a4.67,4.67,0,0,0,.38.58c.54.78,1.36,2,.61,2.85A6.83,6.83,0,0,1,85.79,385L84.35,400A.49.49,0,0,1,83.86,400.4Z" style="fill:#263238"></path><path d="M92.39,351.06h0a.49.49,0,0,1-.45-.54c1.28-12.64.39-28.73.38-28.89a.49.49,0,0,1,.47-.52.5.5,0,0,1,.53.47c0,.16.91,16.33-.38,29A.51.51,0,0,1,92.39,351.06Z" style="fill:#263238"></path><path d="M93.72,330.34a.49.49,0,0,1-.37-.16.5.5,0,0,1,0-.71c2.94-2.65,2.53-8.1,2.53-8.15a.5.5,0,1,1,1-.08c0,.24.46,6-2.86,9A.46.46,0,0,1,93.72,330.34Z" style="fill:#263238"></path><path d="M82.78,326.69h0c-.23,0-5.65-.33-7.91-1.14a.5.5,0,0,1-.31-.63.51.51,0,0,1,.64-.31,37.15,37.15,0,0,0,7.28,1.06l.55-1.38c-2.06-.08-8-.42-11-1.76a.5.5,0,1,1,.4-.92c3.51,1.53,11.31,1.7,11.39,1.71a.47.47,0,0,1,.4.22.5.5,0,0,1,0,.46l-1,2.38A.5.5,0,0,1,82.78,326.69Z" style="fill:#263238"></path><path d="M104.62,272.41,102.16,274l-3.1-1s2.59-1.81,2.72-2.71S104.62,271.12,104.62,272.41Z" style="fill:#fff"></path><path d="M102.16,274.46a.39.39,0,0,1-.15,0l-3.1-1a.51.51,0,0,1-.34-.41.49.49,0,0,1,.21-.48,8.15,8.15,0,0,0,2.5-2.37.78.78,0,0,1,.89-.67c1,.07,3,1.65,3,2.93a.51.51,0,0,1-.23.43l-2.46,1.55A.5.5,0,0,1,102.16,274.46Zm-2-1.7,2,.66,2-1.25a2.71,2.71,0,0,0-.69-.92,3.37,3.37,0,0,0-1.16-.75A6.83,6.83,0,0,1,100.14,272.76Zm4.48-.35h0Z" style="fill:#263238"></path><path d="M96.35,266.09h7c.38,0,2.84,5,3.23,5.55s1.55.9.51,1.42-2.45-.65-2.45-.65l-2.84-2.19-5,1" style="fill:#fff"></path><path d="M106.48,273.69a4,4,0,0,1-2.18-.89l-2.65-2.05-4.81,1a.5.5,0,0,1-.2-1l5-1a.48.48,0,0,1,.4.09l2.84,2.2c.32.25,1.33.9,1.93.59h0l-.18-.15a2.89,2.89,0,0,1-.54-.51,17.66,17.66,0,0,1-1-1.88c-.57-1.07-1.59-3-2-3.47h-6.8a.51.51,0,0,1-.5-.5.5.5,0,0,1,.5-.5h7c.46,0,.72.32,2.67,4,.4.74.84,1.59,1,1.74a2,2,0,0,0,.36.32c.32.26.71.57.67,1s-.54.72-.69.8A1.87,1.87,0,0,1,106.48,273.69Zm-3.15-7.1h0Z" style="fill:#263238"></path><line x1="96.35" y1="258.98" x2="105.39" y2="274.17" style="fill:#fff"></line><path d="M105.39,275.17a1,1,0,0,1-.86-.49l-9-15.19a1,1,0,1,1,1.72-1l9,15.19a1,1,0,0,1-.35,1.37A.94.94,0,0,1,105.39,275.17Z" style="fill:#263238"></path><path d="M97.39,273.45a4.56,4.56,0,0,0,2.84-.52,4.88,4.88,0,0,0,1.55-2.71l2.06-.78c1-.38,1.42-.77,1.42-1.93s-.9-1.3-2.06-.39-5,1.16-5,1.16" style="fill:#fff"></path><path d="M98.05,274a4.29,4.29,0,0,1-.74-.05.5.5,0,0,1,.15-1,4,4,0,0,0,2.49-.44,4.44,4.44,0,0,0,1.34-2.39.49.49,0,0,1,.31-.37l2.07-.77c.86-.33,1.09-.55,1.09-1.47,0-.24-.05-.43-.13-.47s-.54,0-1.13.47c-1.24,1-4.89,1.24-5.31,1.27a.5.5,0,1,1-.06-1c1-.07,3.91-.39,4.76-1.06a2.14,2.14,0,0,1,2.18-.57,1.36,1.36,0,0,1,.69,1.36,2.2,2.2,0,0,1-1.74,2.4l-1.82.68a5,5,0,0,1-1.7,2.76A4.54,4.54,0,0,1,98.05,274Z" style="fill:#263238"></path><path d="M98.21,314.16s-1,7.14-16.3,6.3-21.18-3.37-21.32-4.63a25.22,25.22,0,0,1,.28-4.21S88.8,310.23,98.21,314.16Z" style="fill:#fff"></path><path d="M84.35,321c-.78,0-1.6,0-2.46-.07-14.68-.81-21.59-3.2-21.8-5.08a24.68,24.68,0,0,1,.28-4.34.5.5,0,0,1,.47-.42C62,311.06,89,309.77,98.4,313.7a.5.5,0,0,1,.3.53C98.66,314.52,97.59,321,84.35,321Zm-23-8.93a21.1,21.1,0,0,0-.23,3.67c.2.82,5.51,3.34,20.86,4.19,12.55.69,15.17-4.11,15.66-5.5C88.69,311.07,64.76,312,61.31,312.1Z" style="fill:#263238"></path><path d="M90.75,252.12a16.21,16.21,0,0,1,6.8,3.72c3.53,3.27,6.21,28.22,6.21,28.22l7.06-4.51a14.59,14.59,0,0,1,.28-3.93c.42-1.12.56-2,1.54-2.39s4.21-1.26,5.06-2,3.22-2.95,3.78-2.1,1.69,2.24,1.41,3.22-1.41,2.95-1.41,3.51,0,4.77-1.82,6.74a11.72,11.72,0,0,1-4.49,2.8s-4.35,11.51-5.89,13.75-8.46,5.94-8.46,5.94,1,6.78.61,7.06-2.88,2.67-2.94,3.23c-.15,1.37-22.95,2.91-24.77.91-.85-.94-6.82-.36-7.8-.79A40,40,0,0,1,61,313.16a3.26,3.26,0,0,1-1.27-3.79c.56-2.24,1.13-18.1,1.13-19.5S57.4,277.52,56.8,273c-2.18-16.18-2.6-14.62-2.64-16.73a9.07,9.07,0,0,1,4.39-7.84c.57-.28,4.7-6.3,4.7-6.3S75.74,243.14,90.75,252.12Z" style="fill:#FB923C"></path><path d="M81.28,317.8c-3.93,0-7.17-.31-7.93-1.14-.36-.4-3.06-.42-4.51-.43a10.78,10.78,0,0,1-3.12-.23,38.83,38.83,0,0,1-5-2.45,3.77,3.77,0,0,1-1.43-4.3c.53-2.11,1.11-17.75,1.11-19.38A56.63,56.63,0,0,0,58.91,284a108.69,108.69,0,0,1-2.61-10.87c-1.4-10.4-2.06-13.42-2.38-14.86a8.37,8.37,0,0,1-.26-1.92,9.63,9.63,0,0,1,4.67-8.3,71.31,71.31,0,0,0,4.51-6.14.49.49,0,0,1,.45-.21c.13,0,12.74,1.09,27.65,10a16.68,16.68,0,0,1,7,3.82c3.29,3.06,5.76,23.35,6.26,27.74l6.15-3.93a13.05,13.05,0,0,1,.32-3.84c.07-.17.12-.33.18-.49a3.11,3.11,0,0,1,1.64-2.18c.34-.14.91-.33,1.56-.54a15.63,15.63,0,0,0,3.37-1.34l.36-.32c1.35-1.16,2.64-2.19,3.52-2.08a.89.89,0,0,1,.64.4l.25.36c.64.93,1.53,2.2,1.22,3.28a14.27,14.27,0,0,1-.74,1.78,9.83,9.83,0,0,0-.65,1.59c0,1.49-.19,5.17-2,7.08a12.15,12.15,0,0,1-4.48,2.86c-.62,1.65-4.4,11.51-5.86,13.64s-6.93,5.16-8.32,5.93c1,6.75.63,7,.34,7.2a16.26,16.26,0,0,0-2.73,2.9c0,.42-.54.64-1,.8C95.89,317,87.68,317.8,81.28,317.8ZM63.5,242.68c-1.89,2.75-4.18,6-4.72,6.23a8.67,8.67,0,0,0-4.12,7.38A6.71,6.71,0,0,0,54.9,258c.32,1.46,1,4.5,2.39,14.95.34,2.48,1.58,7.06,2.58,10.74a45,45,0,0,1,1.5,6.17c0,1.17-.56,17.3-1.14,19.62a2.78,2.78,0,0,0,1.09,3.28,35.4,35.4,0,0,0,4.79,2.31,14.74,14.74,0,0,0,2.73.15c2.77,0,4.64.08,5.25.76,1.57,1.72,22.18.41,23.94-.78.31-.88,2.39-2.83,3-3.33a45.73,45.73,0,0,0-.69-6.67.5.5,0,0,1,.26-.52c.07,0,6.82-3.66,8.27-5.78s5.8-13.53,5.84-13.64a.48.48,0,0,1,.32-.3,11.32,11.32,0,0,0,4.27-2.67c1.57-1.69,1.69-5.33,1.69-6.4a6.62,6.62,0,0,1,.74-2,14.9,14.9,0,0,0,.69-1.63c.17-.63-.61-1.76-1.08-2.44l-.26-.38a8.83,8.83,0,0,0-2.67,1.89l-.38.32a13.71,13.71,0,0,1-3.7,1.53c-.6.2-1.18.39-1.48.51-.6.26-.78.7-1.09,1.59,0,.17-.11.34-.18.52a13.18,13.18,0,0,0-.25,3.72.51.51,0,0,1-.23.45L104,284.48a.5.5,0,0,1-.76-.37c-.74-6.89-3.27-25.33-6.05-27.91a16,16,0,0,0-6.56-3.59.34.34,0,0,1-.15-.06C77,244.48,65.43,242.9,63.5,242.68ZM101,312Z" style="fill:#263238"></path><path d="M76.22,280.4a.51.51,0,0,1-.4-.2L68,269.8a.5.5,0,1,1,.8-.59l7.79,10.39a.5.5,0,0,1-.1.7A.54.54,0,0,1,76.22,280.4Z" style="fill:#263238"></path><path d="M75.7,282.73a.53.53,0,0,1-.37-.15l-7-7.54a.5.5,0,0,1,0-.71.5.5,0,0,1,.7,0l7,7.53a.51.51,0,0,1,0,.71A.5.5,0,0,1,75.7,282.73Z" style="fill:#263238"></path><path d="M100.82,305.63a.51.51,0,0,1-.2,0,56.57,56.57,0,0,1-6.18-3.1c-1.12-.94-7.92-20.83-8-21A49.61,49.61,0,0,0,84.2,276a.5.5,0,0,1,.9-.42,52.29,52.29,0,0,1,2.35,5.69c.26,1.14,6.77,19.44,7.66,20.49a57.74,57.74,0,0,0,5.92,2.93.5.5,0,0,1,.25.66A.5.5,0,0,1,100.82,305.63Z" style="fill:#263238"></path><path d="M104.32,293h-.09a.51.51,0,0,1-.41-.58,23.38,23.38,0,0,0-.18-5.43,17.54,17.54,0,0,1-2.29,5.68.5.5,0,0,1-.8-.61c1.73-2.26,2.7-8,2.71-8a.5.5,0,0,1,.49-.42h0a.5.5,0,0,1,.49.42c0,.25,1,6.14.56,8.58A.49.49,0,0,1,104.32,293Z" style="fill:#263238"></path><path d="M121.48,269.17c-.56-.85-2.94,1.4-3.78,2.1a4.07,4.07,0,0,1-.81.46,6.39,6.39,0,0,0,1.37-2.64c.15-1.08-1.08-1.69-2-.61s-.93,1.69-1.54,2.31-2.07,2.44-2.07,2.44c-1,.43-1.12,1.27-1.54,2.39a14.59,14.59,0,0,0-.28,3.93l-2.44,1.89c3.39.29,5.3,3.59,6.16,5.65.39-1,.63-1.65.63-1.65a11.72,11.72,0,0,0,4.49-2.8c1.82-2,1.82-6.18,1.82-6.74s1.13-2.53,1.41-3.51S122.05,270,121.48,269.17Z" style="fill:#fff"></path><path d="M114.54,287.59a.48.48,0,0,1-.46-.31c-.78-1.87-2.56-5.07-5.74-5.35a.49.49,0,0,1-.44-.35.51.51,0,0,1,.18-.54l2.23-1.73a13,13,0,0,1,.32-3.87c.07-.17.12-.33.18-.49a3.13,3.13,0,0,1,1.52-2.12c.31-.39,1.47-1.84,2-2.39a2.94,2.94,0,0,0,.54-.81,7.52,7.52,0,0,1,1-1.48,1.74,1.74,0,0,1,2-.61,1.51,1.51,0,0,1,.83,1.63,3.43,3.43,0,0,1-.18.7c1-.84,2-1.47,2.69-1.38a.89.89,0,0,1,.64.4h0l.25.36c.64.93,1.53,2.2,1.22,3.28a14.27,14.27,0,0,1-.74,1.78,9.83,9.83,0,0,0-.65,1.59c0,1.49-.19,5.17-2,7.08a12.15,12.15,0,0,1-4.48,2.86c-.1.27-.29.77-.55,1.43a.49.49,0,0,1-.46.32Zm-5-6.44c2.45.71,4,2.88,4.93,4.66l.2-.54a.48.48,0,0,1,.32-.3,11.32,11.32,0,0,0,4.27-2.67c1.57-1.69,1.69-5.33,1.69-6.4a6.62,6.62,0,0,1,.74-2,14.9,14.9,0,0,0,.69-1.63c.17-.63-.61-1.76-1.08-2.44l-.24-.34c-.34,0-1.25.6-2.69,1.85l-.38.32a4.11,4.11,0,0,1-.93.53.48.48,0,0,1-.59-.14.51.51,0,0,1,0-.61,5.91,5.91,0,0,0,1.28-2.41.51.51,0,0,0-.26-.57c-.2-.09-.53,0-.87.35a6.36,6.36,0,0,0-.85,1.3,3.75,3.75,0,0,1-.72,1c-.59.59-2,2.39-2,2.4a.48.48,0,0,1-.2.15c-.6.26-.78.7-1.09,1.59,0,.17-.11.34-.18.52a13.18,13.18,0,0,0-.25,3.72.48.48,0,0,1-.19.42Zm11.55-11.67h0Zm-.05,0Z" style="fill:#263238"></path><path d="M114.86,274.07a.49.49,0,0,1-.38-.18.51.51,0,0,1,.06-.71c.9-.75,2-1.8,2-1.81a.5.5,0,1,1,.7.71c0,.05-1.13,1.1-2.06,1.87A.47.47,0,0,1,114.86,274.07Z" style="fill:#263238"></path><path d="M113.07,290.29a.5.5,0,0,1-.48-.34c0-.05-1.52-4.58-5.3-5.88a.5.5,0,0,1,.33-.95c4.26,1.47,5.86,6.31,5.92,6.52a.5.5,0,0,1-.32.63Z" style="fill:#263238"></path><path d="M73.72,316.83a.53.53,0,0,1-.27-.08l-7.1-4.57a.5.5,0,0,1,.54-.85l7.1,4.58a.5.5,0,0,1,.15.69A.48.48,0,0,1,73.72,316.83Z" style="fill:#263238"></path><path d="M94.22,223.74c0,.76-.21,1.38-.47,1.38s-.46-.62-.46-1.38.21-1.38.46-1.38S94.22,223,94.22,223.74Z" style="fill:#263238"></path></g></svg>
